<svg width="181" height="180" viewBox="0 0 181 180" fill="none" xmlns="http://www.w3.org/2000/svg">
<g clip-path="url(#clip0_2078_392)">
<path fill-rule="evenodd" clip-rule="evenodd" d="M59.6223 171.211V150.469C59.6223 145.824 61.7569 144.625 65.1943 143.396L77.9754 138.58C79.3101 138.136 78.8114 138.26 82.6297 141.127C91.7187 147.953 89.0409 148.227 99.9739 139.921C102.849 137.737 101.338 138.002 106.343 139.869C109.506 141.049 112.318 142.164 115.544 143.306C119.147 144.58 121.377 145.698 121.377 150.469V171.211C121.377 172.948 119.953 174.375 118.22 174.375H62.7796C61.0461 174.375 59.6223 172.948 59.6223 171.211ZM84.184 125.508C87.197 126.956 93.8025 126.956 96.8155 125.508C97.4542 128.254 97.9317 131.199 98.5703 133.945C96.424 135.082 91.3878 139.57 90.4998 139.57C89.8261 139.57 87.247 137.389 86.5403 136.858C85.1431 135.807 83.9103 134.731 82.4292 133.945C83.0678 131.199 83.5453 128.254 84.184 125.508ZM103.482 87.1873H76.4647C76.4647 81.884 75.5936 75.9377 83.1316 75.9377H110.149C110.149 80.9645 111.001 87.1873 103.482 87.1873ZM70.8502 80.8593V107.929C70.8502 113.334 75.2329 121.452 78.5695 122.343C78.5695 126.079 76.8911 129.498 76.8158 132.89C75.4769 133.203 74.7661 133.601 73.4378 134.077C72.0543 134.572 71.1865 134.906 69.8508 135.404C64.8135 137.284 59.895 138.531 56.8956 141.761C55.4486 143.319 54.0078 145.807 54.0078 148.711V172.266C54.0078 176.133 57.8675 180 61.7272 180H119.272C123.132 180 126.992 176.133 126.992 172.266V148.711C126.992 139.956 117.937 138.01 111.403 135.501C110.017 134.969 109.196 134.656 107.824 134.165C106.395 133.654 105.606 133.222 104.184 132.89C104.108 129.498 102.43 126.079 102.43 122.343C104.511 121.788 106.534 118.465 107.633 116.658C110.932 111.228 110.149 105.196 110.149 98.4379C110.149 96.7371 109.04 95.6253 107.342 95.6253C103.699 95.6253 104.533 99.7327 104.535 103.36C104.539 110.142 103.91 114.33 98.426 118.332C90.9602 123.781 80.5471 119.952 77.5574 112.108C75.8577 107.651 76.4647 98.3264 76.4647 92.8126H105.587C110.459 92.8126 115.764 87.4977 115.764 82.6175C115.764 76.0079 116.974 70.3124 112.957 70.3124H81.3767C75.9617 70.3124 70.8502 75.4338 70.8502 80.8593Z" fill="#5EA395"/>
<path fill-rule="evenodd" clip-rule="evenodd" d="M137.518 114.257C140.531 115.706 147.137 115.706 150.15 114.257C150.789 117.004 151.266 119.949 151.905 122.695C150.472 123.454 149.308 124.469 147.994 125.457C143.029 129.189 144.622 129.178 139.875 125.608C138.477 124.557 137.245 123.48 135.764 122.695C136.402 119.949 136.88 117.004 137.518 114.257ZM156.817 75.9377H129.799C129.799 70.6333 128.928 64.687 136.466 64.687H163.484C163.484 69.7138 164.336 75.9377 156.817 75.9377ZM124.185 69.6097V96.6797C124.185 102.083 128.568 110.201 131.904 111.094C131.904 114.829 130.225 118.248 130.15 121.641L116.06 126.86C113.393 127.833 112.605 127.826 112.605 130.781C112.605 131.665 113.862 133.435 115.909 133.071L131.066 127.428C132.857 126.766 132.884 127.56 136.365 130.178C144.939 136.626 142.731 136.621 151.503 130.028C157.168 125.769 152.832 126.377 168.879 132.056C172.481 133.33 174.712 134.448 174.712 139.218C174.712 165.802 176.928 163.125 165.238 163.125L133.638 163.105C127.819 163.109 129.299 168.75 132.606 168.75H172.607C176.466 168.75 180.326 164.883 180.326 161.016V137.461C180.326 134.661 178.977 132.231 177.608 130.692C175.624 128.462 174.612 127.972 171.607 126.86C169.401 126.045 167.125 125.168 164.738 124.252L157.519 121.641C157.443 118.248 155.764 114.829 155.764 111.094C159.063 110.212 163.484 102.107 163.484 96.6797C163.484 90.0701 164.694 84.3746 160.676 84.3746C155.146 84.3746 159.87 93.7299 156.579 101.363C153.818 107.771 145.775 111.713 138.107 108.395C132.615 106.018 129.799 100.548 129.799 94.5697V81.562H158.922C163.794 81.562 169.098 76.248 169.098 71.3668C169.098 64.7572 170.309 59.0627 166.291 59.0627H134.711C129.296 59.0627 124.185 64.1842 124.185 69.6097Z" fill="#5EA395"/>
<path fill-rule="evenodd" clip-rule="evenodd" d="M30.85 114.257C33.8631 115.706 40.4685 115.706 43.4815 114.257C44.1202 117.004 44.5977 119.949 45.2363 122.695C43.0901 123.833 38.0538 128.321 37.1658 128.321C36.4921 128.321 33.913 126.139 33.2064 125.608C31.8091 124.557 30.5752 123.48 29.0953 122.695C29.734 119.949 30.2113 117.004 30.85 114.257ZM50.1484 75.9377H23.1307C23.1307 70.6333 22.2597 64.687 29.7976 64.687H56.8153C56.8153 69.7138 57.6673 75.9377 50.1484 75.9377ZM17.5162 69.6097V96.6797C17.5162 102.083 21.899 110.201 25.2355 111.094C25.2355 114.829 23.5572 118.248 23.4808 121.641L9.39259 126.86C4.78179 128.566 0.673828 131.77 0.673828 137.461V161.016C0.673828 164.883 4.53355 168.75 8.39317 168.75H48.3937C51.7961 168.75 52.9132 163.187 47.7147 163.103C36.5547 162.922 19.8471 163.578 9.77668 163.144C7.75244 163.057 6.28831 161.979 6.28831 159.961V139.218C6.28831 134.573 8.42184 133.374 11.8603 132.145L23.6208 127.736C23.6993 127.706 24.6393 127.331 24.6414 127.33C25.9761 126.886 25.4774 127.009 29.2958 129.877C30.6177 130.87 31.6351 131.634 32.904 132.59C37.0618 135.719 37.0841 135.866 41.0255 132.89L47.8409 127.729C48.7957 127.018 48.6377 126.98 49.6901 127.33C50.3734 127.557 51.2932 127.937 52.005 128.218L65.3379 133.088C67.6783 133.257 71.1433 129.092 65.202 126.948C63.5375 126.348 62.0267 125.718 60.3653 125.116L50.8497 121.641C50.7744 118.248 49.096 114.829 49.096 111.094C51.1765 110.537 53.1997 107.215 54.2978 105.408C57.5984 99.9782 56.8153 93.9468 56.8153 87.1873C56.8153 85.4865 55.7056 84.3746 54.0081 84.3746C50.3649 84.3746 51.1987 88.482 51.2009 92.1089C51.203 95.9463 51.0948 98.6154 49.9108 101.363C47.1481 107.771 39.1062 111.713 31.4388 108.395C28.2603 107.019 25.4382 104.047 24.2234 100.858C22.5238 96.4012 23.1307 87.0767 23.1307 81.562H52.2534C57.1252 81.562 62.4298 76.248 62.4298 71.3668C62.4298 64.7572 63.6404 59.0627 59.6226 59.0627H28.0428C22.6277 59.0627 17.5162 64.1842 17.5162 69.6097Z" fill="#5EA395"/>
<path fill-rule="evenodd" clip-rule="evenodd" d="M93.3076 5.62534C97.6479 5.62534 95.3913 12.9875 95.0008 15.7598L90.6118 46.5174C89.8755 52.1491 86.5526 50.7566 85.4863 49.3067C84.4382 47.8801 85.619 43.1903 85.9999 40.4903L89.5084 15.881C90.0909 11.7407 89.9699 5.62534 93.3076 5.62534ZM92.5331 0H93.6746C97.7752 0.247655 101.728 3.17298 101.728 7.73427C101.728 10.8637 101.366 12.2148 100.966 15.0561L96.1276 48.8804C94.3017 59.7686 79.2725 57.8595 79.2725 48.164C79.2725 45.4916 79.6883 43.6527 80.0343 41.194L84.8731 7.36966C85.6964 2.46078 89.0384 0.21902 92.5331 0Z" fill="#5EA395"/>
<path fill-rule="evenodd" clip-rule="evenodd" d="M110.15 16.875C110.15 16.7634 111.786 10.6502 116.418 16.9228C125.484 29.1993 125.733 26.8756 121.228 32.8963C120.05 34.4707 115.551 40.8081 114.41 41.5608C112.551 42.7874 110.15 41.2705 110.15 39.3753C110.15 37.142 117.168 30.7194 117.168 28.1246C117.168 25.5309 110.15 19.1084 110.15 16.875ZM104.535 16.1724C104.535 19.7047 104.901 20.3244 107.041 23.154C111.537 29.1015 111.503 27.1774 107.192 32.8963C104.961 35.8546 104.535 36.4159 104.535 40.0779C104.535 47.4891 115.029 50.5919 119.488 44.8645L126.992 34.8055C130.82 29.7127 130.82 26.5375 126.992 21.4448L119.485 11.3889C114.595 5.51801 104.535 9.05348 104.535 16.1724Z" fill="#5EA395"/>
<path fill-rule="evenodd" clip-rule="evenodd" d="M51.2012 27.4219C51.2012 32.5104 53.9565 34.7385 57.7684 39.8269C61.487 44.7911 62.5013 47.8121 68.7459 47.8121C73.0406 47.8121 76.4653 44.1171 76.4653 38.6714C76.4653 35.7408 73.8809 32.993 72.455 31.0881C70.4848 28.454 68.8615 25.3129 66.6399 25.3129C64.9435 25.3129 63.8328 26.4248 63.8328 28.1245C63.8328 30.7193 70.8508 37.1419 70.8508 39.3752C70.8508 41.2704 68.4499 42.7873 66.5901 41.5607C65.5303 40.8612 63.9219 38.4397 63.0805 37.3162C54.5124 25.8731 54.9071 30.024 64.5828 16.9227C69.2148 10.6501 70.8508 16.7633 70.8508 16.8749C70.8508 18.176 69.7984 18.0835 69.7984 20.3902C69.7984 23.2295 73.2877 24.5932 75.2887 21.3203C78.0673 16.775 76.3103 8.43793 67.3423 8.43793C62.6477 8.43793 60.113 13.2926 57.7684 16.4231C55.4778 19.4803 51.2012 24.2254 51.2012 27.4219Z" fill="#5EA395"/>
</g>
<defs>
<clipPath id="clip0_2078_392">
<rect width="179.653" height="180" fill="white" transform="translate(0.673828)"/>
</clipPath>
</defs>
</svg>
