<svg width="161" height="31" viewBox="0 0 161 31" fill="none" xmlns="http://www.w3.org/2000/svg">
<path d="M27.0838 18.7788C32.8583 19.8501 36.7861 21.9588 36.7861 24.3859C36.7866 27.8985 28.5717 30.7417 18.4395 30.7417C8.30716 30.7417 0.0922852 27.8968 0.0922852 24.3859C0.0922852 21.9588 4.02179 19.8501 9.7946 18.7788C12.3038 19.4335 15.2663 19.81 18.4395 19.81C21.612 19.81 24.5753 19.4335 27.0843 18.7798L27.0838 18.7788ZM24.8727 8.48492C29.7776 9.30572 33.1564 11.0316 33.1564 13.0313C33.1564 15.8211 26.5665 18.0838 18.4388 18.0838C10.3112 18.0838 3.72123 15.8211 3.72123 13.0313C3.72123 11.0328 7.10005 9.30524 12.005 8.48492C13.8899 8.96589 16.0888 9.24111 18.4388 9.24111C20.7891 9.24111 22.9873 8.96467 24.8727 8.48492ZM18.5065 0C24.5932 0 29.5288 1.71204 29.5288 3.82562C29.5288 5.93726 24.5932 7.65003 18.5065 7.65003C12.4198 7.65003 7.48419 5.93799 7.48419 3.82562C7.48419 1.71204 12.4198 0 18.5065 0ZM60.1774 25.3464C61.7076 25.3464 62.9783 25.1081 63.989 24.6301C64.998 24.1537 65.755 23.4988 66.2566 22.6705C66.7495 21.8478 67.01 20.9038 67.01 19.9441C67.01 19.9186 67.0095 19.8901 67.0095 19.8644C67.0095 18.8427 66.8015 17.9723 66.3842 17.2514C65.9993 16.5647 65.4445 15.9873 64.7755 15.5765C64.1584 15.1925 63.4533 14.967 62.7287 14.9235L62.728 14.7253C63.3591 14.5772 63.96 14.3136 64.4969 13.9492C65.0246 13.5897 65.4445 13.119 65.7584 12.5399C66.0703 11.9608 66.2276 11.2612 66.2276 10.4416C66.2281 10.4166 66.2289 10.3886 66.2289 10.3631C66.2289 9.44928 65.9797 8.55172 65.5093 7.76979C65.0309 6.98251 64.3108 6.36138 63.3487 5.90665C62.3883 5.45168 61.1836 5.22383 59.7377 5.22383L52.0757 5.22455V25.3452H60.1774V25.3464ZM59.2881 13.7831H55.7007V8.23278H59.3656C60.4357 8.23278 61.2413 8.48492 61.7844 8.98896C62.3288 9.49325 62.6009 10.136 62.6009 10.915C62.6009 11.5053 62.4559 12.0142 62.1669 12.4429C61.8763 12.8734 61.4805 13.202 60.9789 13.4357C60.4681 13.6645 59.9134 13.7836 59.3533 13.7836C59.332 13.7836 59.3088 13.7831 59.2881 13.7831ZM59.6012 22.3015H55.7024V16.4068H59.699C60.4478 16.4068 61.0934 16.545 61.633 16.8251C62.1495 17.0782 62.5842 17.4739 62.8865 17.9636C63.1782 18.4446 63.3251 18.9843 63.3251 19.5804C63.3251 20.3798 63.0344 21.0328 62.4506 21.54C61.8683 22.0472 60.9188 22.301 59.6024 22.301L59.6012 22.3015ZM73.5647 25.6525C74.3461 25.6525 75.028 25.5432 75.6122 25.3236C76.1945 25.104 76.6807 24.8137 77.0677 24.4494C77.456 24.0869 77.7561 23.6946 77.9726 23.2754L78.0888 23.2746V25.3481H81.4908V15.2476C81.4908 14.2456 81.3087 13.4107 80.9482 12.742C80.6118 12.1012 80.1177 11.5546 79.5161 11.1555C78.9159 10.7639 78.2507 10.478 77.5532 10.3155C76.8471 10.1457 76.1196 10.0597 75.3926 10.0597C74.3437 10.0597 73.3849 10.2149 72.5182 10.5268C71.6895 10.8149 70.9354 11.2932 70.3212 11.9212C69.7053 12.569 69.2614 13.3619 69.0302 14.2276L72.3327 14.6981C72.5083 14.18 72.8493 13.7313 73.3538 13.3514C73.8583 12.9715 74.5447 12.7828 75.4116 12.7828C76.2327 12.7828 76.8609 12.9854 77.2965 13.3915C77.7341 13.7977 77.9525 14.3704 77.9525 15.1099V15.1699C77.9525 15.5097 77.8271 15.7601 77.5763 15.9217C77.3255 16.0813 76.9269 16.1981 76.3789 16.2754C75.8319 16.3509 75.1176 16.434 74.2386 16.5258C73.5278 16.5989 72.8181 16.7274 72.1237 16.9023C71.4781 17.0614 70.8597 17.3187 70.2912 17.6638C69.7567 17.9903 69.3151 18.4521 69.0106 19.0011C68.6975 19.5578 68.5414 20.2618 68.5414 21.113C68.5414 22.1011 68.7615 22.9343 69.202 23.6094C69.6405 24.2827 70.2414 24.7926 71.0001 25.1356C71.7583 25.48 72.6147 25.652 73.5659 25.652L73.5647 25.6525ZM74.4824 23.0395C73.7469 23.0395 73.1419 22.8721 72.6661 22.5381C72.1906 22.2029 71.9519 21.7078 71.9519 21.0549C71.9519 20.5953 72.0727 20.22 72.3143 19.9295C72.554 19.6373 72.8829 19.4101 73.3006 19.2457C73.7578 19.0727 74.2352 18.953 74.7182 18.8925L75.5486 18.7759C75.8698 18.73 76.1906 18.6775 76.5166 18.6173C76.8423 18.5585 77.1371 18.4893 77.4019 18.411C77.6648 18.3326 77.853 18.2483 77.9629 18.156V19.9341C77.9629 20.4909 77.8206 21.0056 77.5377 21.4761C77.2446 21.9566 76.8263 22.3499 76.3298 22.6112C75.8098 22.8952 75.1937 23.0388 74.4841 23.0388L74.4824 23.0395ZM87.83 25.3481V5.22577H84.2934V25.3464H87.8317L87.83 25.3481ZM95.0221 25.6525C95.8033 25.6525 96.4868 25.5432 97.0694 25.3236C98.0842 24.9629 98.9277 24.2302 99.43 23.2741L99.546 23.2746V25.3481H102.948V15.2476C102.948 14.2456 102.766 13.4107 102.405 12.742C102.069 12.1019 101.576 11.5551 100.975 11.156C100.374 10.7627 99.7084 10.478 99.0098 10.3155C98.3036 10.1457 97.576 10.0597 96.8493 10.0597C96.8157 10.0609 96.7804 10.0597 96.7463 10.0597C95.8038 10.0597 94.866 10.2179 93.9754 10.5273C93.1462 10.8149 92.392 11.2932 91.7778 11.9212C91.162 12.569 90.7181 13.3619 90.4869 14.2276L93.7893 14.6981C93.965 14.18 94.306 13.7313 94.8105 13.3514C95.315 12.9715 96.0031 12.7828 96.8684 12.7828C97.6894 12.7828 98.3176 12.9854 98.7549 13.3915C99.1908 13.7977 99.4093 14.3704 99.4093 15.1099V15.1699C99.4093 15.5097 99.2838 15.7601 99.033 15.9217C98.7822 16.0813 98.3836 16.1981 97.8356 16.2754C97.2883 16.3509 96.5741 16.434 95.6953 16.5258C94.9844 16.5989 94.2748 16.7274 93.5801 16.9023C92.9343 17.0614 92.3159 17.3187 91.7472 17.6638C91.2132 17.9903 90.7718 18.4521 90.4673 19.0011C90.1552 19.5578 89.9981 20.2618 89.9981 21.113C89.9981 22.1011 90.2182 22.9343 90.6585 23.6094C91.0972 24.2827 91.6982 24.7926 92.4568 25.1356C93.215 25.48 94.0713 25.652 95.0226 25.652L95.0221 25.6525ZM95.9391 23.0395C95.2053 23.0395 94.5983 22.8721 94.1228 22.5381C93.6473 22.2029 93.4086 21.7078 93.4086 21.0549C93.4086 20.5953 93.5294 20.22 93.771 19.9295C94.0107 19.6373 94.3395 19.4101 94.7573 19.2457C95.2144 19.0727 95.6916 18.953 96.1749 18.8925L97.0054 18.7759C97.3265 18.73 97.6473 18.6775 97.973 18.6173C98.299 18.5585 98.5938 18.4893 98.8583 18.411C99.1215 18.3326 99.3097 18.2483 99.4196 18.156V19.9341C99.4196 20.4909 99.2792 21.0056 98.9941 21.4761C98.7013 21.9566 98.2828 22.3499 97.7865 22.6112C97.2666 22.8952 96.6504 23.0388 95.9408 23.0388L95.9391 23.0395ZM109.287 25.3481V16.5054C109.287 15.7786 109.425 15.1587 109.694 14.6488C109.964 14.1387 110.339 13.7464 110.818 13.4746C111.302 13.2069 111.847 13.0662 112.4 13.0662C112.421 13.0662 112.443 13.0667 112.464 13.0667C113.377 13.0667 114.091 13.3509 114.609 13.9213C115.128 14.4902 115.386 15.2801 115.386 16.2887V25.3486L118.924 25.3481V15.738C118.931 14.5332 118.72 13.5096 118.294 12.6635C117.9 11.8539 117.273 11.1786 116.496 10.7272C115.724 10.2817 114.82 10.0604 113.783 10.0604C112.663 10.0604 111.722 10.3097 110.964 10.8074C110.219 11.2896 109.64 11.9938 109.308 12.8204L109.131 12.8211V10.2567H105.751V25.3481H109.288H109.287ZM128.314 25.6433C129.571 25.6433 130.666 25.4125 131.597 24.9502C132.492 24.5196 133.256 23.854 133.806 23.0237C134.347 22.201 134.659 21.2558 134.745 20.1892L131.363 20.1899C131.278 20.6888 131.08 21.163 130.787 21.5742C130.517 21.9461 130.16 22.2447 129.747 22.4439C129.323 22.6414 128.862 22.7443 128.395 22.7443C128.378 22.7443 128.36 22.7436 128.343 22.7436C127.607 22.7436 126.968 22.5456 126.423 22.1487C125.879 21.7521 125.457 21.1868 125.157 20.4488C124.857 19.7128 124.707 18.8303 124.707 17.8021C124.707 16.7877 124.859 15.9163 125.162 15.1891C125.464 14.4623 125.889 13.9021 126.437 13.5134C126.977 13.1343 127.62 12.9297 128.28 12.9297C128.301 12.9297 128.323 12.9302 128.343 12.9302C129.196 12.9302 129.878 13.1731 130.391 13.6616C130.902 14.1491 131.226 14.7562 131.363 15.483H134.745C134.665 14.3959 134.347 13.4449 133.786 12.6288C133.218 11.8067 132.439 11.1509 131.535 10.7326C130.593 10.2834 129.514 10.0592 128.294 10.0592C126.829 10.0592 125.56 10.3879 124.489 11.0462C123.415 11.7067 122.551 12.6613 122 13.7981C121.415 14.9741 121.121 16.3283 121.121 17.8608C121.121 19.3871 121.41 20.7352 121.987 21.9036C122.53 23.0366 123.39 23.9915 124.458 24.6493C125.53 25.3102 126.816 25.642 128.314 25.642V25.6433ZM143.538 25.6433C144.705 25.6433 145.74 25.465 146.647 25.1069C147.552 24.7503 148.296 24.246 148.879 23.5943C149.463 22.9423 149.857 22.1771 150.067 21.2995L146.765 20.9259C146.607 21.3517 146.376 21.7095 146.07 21.9972C145.765 22.286 145.403 22.5044 144.985 22.6501C144.553 22.7971 144.099 22.8721 143.642 22.8721C143.624 22.8721 143.605 22.8714 143.587 22.8714C142.818 22.8714 142.147 22.7072 141.573 22.3749C140.997 22.0397 140.531 21.54 140.236 20.9405C139.915 20.3147 139.756 19.5629 139.756 18.6858L139.757 18.7747L150.213 18.7759V17.6842C150.213 16.3626 150.029 15.2204 149.666 14.2594C149.301 13.3004 148.8 12.5102 148.166 11.8874C147.545 11.2745 146.796 10.8028 145.976 10.5072C145.149 10.212 144.276 10.0597 143.398 10.0597C143.384 10.0597 143.367 10.0597 143.353 10.0597C141.919 10.0597 140.671 10.3886 139.608 11.0469C138.543 11.7103 137.682 12.6654 137.131 13.7977C136.541 14.9733 136.247 16.3371 136.247 17.8893C136.247 19.4677 136.539 20.8387 137.126 22.0013C137.712 23.1648 138.551 24.0607 139.643 24.6944C140.734 25.326 142.032 25.6425 143.537 25.6425L143.538 25.6433ZM139.772 16.2608C139.818 15.7135 139.968 15.2036 140.22 14.7312C140.523 14.1654 140.948 13.7058 141.496 13.3556C142.045 13.0121 142.681 12.8292 143.328 12.8292C143.353 12.8292 143.378 12.8296 143.402 12.8296C144.079 12.8296 144.674 12.9837 145.185 13.2909C145.697 13.6002 146.096 14.0214 146.382 14.5546C146.669 15.0897 146.815 15.6967 146.822 16.3776H139.765L139.772 16.2608ZM155.977 25.3481V16.4758C155.977 15.8333 156.124 15.2675 156.416 14.7759C156.709 14.284 157.112 13.8999 157.624 13.6215C158.14 13.3468 158.716 13.2028 159.301 13.2028C159.32 13.2028 159.34 13.2032 159.358 13.2032C159.658 13.2032 159.969 13.2249 160.291 13.2679C160.615 13.3109 160.85 13.3568 161 13.4107V10.1387C160.798 10.101 160.593 10.076 160.388 10.0643C160.17 10.05 159.95 10.04 159.731 10.04C158.87 10.04 158.105 10.2781 157.437 10.7535C156.769 11.2269 156.299 11.9003 156.026 12.7716H155.869V10.2567H152.44V25.3481H155.977Z" fill="#5EA395"/>
</svg>
