<svg width="40" height="40" viewBox="0 0 40 40" fill="none" xmlns="http://www.w3.org/2000/svg">
<path d="M30.0974 10.7361C28.2502 9.87503 26.2502 9.25003 24.1669 8.88892C24.1303 8.88944 24.0953 8.90441 24.0697 8.93058C23.8197 9.38892 23.528 9.98614 23.3336 10.4445C21.1238 10.1113 18.8766 10.1113 16.6669 10.4445C16.4724 9.97225 16.1808 9.38892 15.9169 8.93058C15.903 8.90281 15.8613 8.88892 15.8197 8.88892C13.7363 9.25003 11.7502 9.87503 9.88911 10.7361C9.87522 10.7361 9.86133 10.75 9.84744 10.7639C6.06966 16.4167 5.02799 21.9167 5.54188 27.3611C5.54188 27.3889 5.55577 27.4167 5.58355 27.4306C8.08355 29.2639 10.4863 30.375 12.8613 31.1111C12.903 31.125 12.9447 31.1111 12.9586 31.0834C13.5141 30.3195 14.0141 29.5139 14.4447 28.6667C14.4724 28.6111 14.4447 28.5556 14.3891 28.5417C13.5974 28.2361 12.8474 27.875 12.1113 27.4584C12.0558 27.4306 12.0558 27.3472 12.0974 27.3056C12.2502 27.1945 12.403 27.0695 12.5558 26.9584C12.5836 26.9306 12.6252 26.9306 12.653 26.9445C17.4308 29.125 22.5836 29.125 27.3058 26.9445C27.3336 26.9306 27.3752 26.9306 27.403 26.9584C27.5558 27.0834 27.7085 27.1945 27.8613 27.3195C27.9169 27.3611 27.9169 27.4445 27.8474 27.4722C27.1252 27.9028 26.3613 28.25 25.5697 28.5556C25.5141 28.5695 25.5002 28.6389 25.5141 28.6806C25.9586 29.5278 26.4586 30.3334 27.0002 31.0972C27.0419 31.1111 27.0835 31.125 27.1252 31.1111C29.5141 30.375 31.9169 29.2639 34.4169 27.4306C34.4447 27.4167 34.4585 27.3889 34.4585 27.3611C35.0697 21.0695 33.4447 15.6111 30.153 10.7639C30.1391 10.75 30.1252 10.7361 30.0974 10.7361ZM15.1669 24.0417C13.7363 24.0417 12.5419 22.7222 12.5419 21.0972C12.5419 19.4722 13.7086 18.1528 15.1669 18.1528C16.6391 18.1528 17.8058 19.4861 17.7919 21.0972C17.7919 22.7222 16.6252 24.0417 15.1669 24.0417ZM24.8474 24.0417C23.4169 24.0417 22.2224 22.7222 22.2224 21.0972C22.2224 19.4722 23.3891 18.1528 24.8474 18.1528C26.3197 18.1528 27.4863 19.4861 27.4724 21.0972C27.4724 22.7222 26.3197 24.0417 24.8474 24.0417Z" fill="#262626"/>
</svg>
