<svg width="154" height="180" viewBox="0 0 154 180" fill="none" xmlns="http://www.w3.org/2000/svg">
<g clip-path="url(#clip0_2078_409)">
<path fill-rule="evenodd" clip-rule="evenodd" d="M79.9023 172.262V155.377L87.0563 151.625C88.9006 150.703 92.9767 148.387 94.6795 147.991V164.875C93.2342 165.211 86.2225 169.112 83.6538 170.384C82.355 171.027 81.1108 171.98 79.9023 172.262ZM77.2761 180H76.3163C74.4428 179.711 72.2189 177.73 64.5387 173.903C62.3945 172.834 60.4854 171.99 58.508 170.787C56.6534 169.658 53.8661 169.211 53.8661 166.633C53.8661 165.275 54.446 164.143 55.9057 163.726C58.4529 162.999 71.093 171.521 74.2727 172.262V155.377C72.6469 154.289 61.2066 148.389 59.4955 147.991C59.4955 150.218 59.4771 152.453 59.5013 154.68C59.5144 155.875 59.6568 157.062 59.2169 157.913C58.0935 160.085 53.911 160.002 53.8366 156.11C53.7755 152.921 53.3298 143.158 54.2179 141.307C42.7464 133.627 44.7373 134.439 39.4407 137.086C36.7812 138.416 34.5624 139.701 31.8174 141.073C29.6965 142.133 22.5337 147.384 20.9609 143.25C20.3086 141.536 20.7932 122.486 20.7932 120.202C18.3373 118.903 15.7872 117.842 13.2918 116.446C11.4568 115.419 7.99692 113.277 6.01596 112.815V129.699C7.61397 130.072 8.29982 130.837 9.76373 131.581C12.4378 132.938 19.3858 135.306 19.3858 138.493C19.3858 139.719 17.7974 141.307 16.5711 141.307C14.7143 141.307 9.63748 138.017 7.77512 137.086C5.67241 136.035 0.386551 134.171 0.386551 131.458V107.187C0.386551 105.296 9.66157 101.096 11.4968 100.004C13.5245 98.7972 15.3794 97.8951 17.3427 96.7027C22.8193 93.376 23.1972 92.7232 29.1694 96.3509L43.6628 104.373L45.0646 103.313C46.4441 102.382 48.0133 100.939 49.644 100.504C48.9414 97.4887 47.8847 95.702 47.8847 91.7102C47.8847 86.1637 48.4102 81.8138 50.698 77.2869L53.1582 73.0631C57.5778 66.8214 66.1044 60.9379 74.2727 60.756V26.9877C74.2727 25.8566 72.0407 25.1653 70.9889 24.6427L59.8473 18.8975V36.1334C60.9286 36.422 61.7391 37.165 62.7745 37.7797C64.9349 39.0625 69.6989 41.1754 69.6989 43.8718C69.6989 45.2615 68.1012 46.6858 66.5323 46.6858C65.7602 46.6858 58.0957 41.7696 57.0327 41.0578C54.8826 42.1952 48.8863 46.5586 46.8293 47.0376C46.8483 47.8888 47.0276 48.4034 47.036 48.8387L46.8478 54.4059C47.0459 56.7831 47.1812 58.924 47.1812 61.8112C47.1812 72.9095 48.6802 73.3249 42.4849 76.4623L36.2739 79.7504C19.5133 88.0827 27.7743 87.9182 11.296 79.7479C10.2715 79.2399 9.34379 78.821 8.24251 78.2281C5.97195 77.0056 0.738383 75.0642 0.738383 72.3638C0.738383 66.0229 9.97977 72.3697 12.3646 73.7552C13.9118 74.6542 19.3171 77.6481 20.7932 77.9919L20.7941 61.1059L6.36779 54.0727C6.36779 58.8722 7.54084 65.3288 2.84937 65.3288C1.93794 65.3288 0.386551 63.8179 0.386551 62.8665C0.386551 45.5961 -1.24132 47.8978 5.42922 44.3406C25.9428 33.4008 20.6724 32.2911 32.7716 39.2832L41.1999 43.8718C42.2685 43.1565 43.2684 42.5955 44.4799 41.8748L53.8661 36.1334C53.8661 32.9234 53.442 16.0846 53.9354 13.6905C54.3297 11.7763 56.1257 11.0938 57.858 10.2253L67.348 4.9393C74.6183 0.902725 76.1757 -1.47725 80.1886 1.02361C84.0001 3.39887 88.3057 5.40647 92.2007 7.6573C95.4508 9.53554 100.288 11.3113 100.635 13.9987C101.073 17.3845 100.661 32.0466 100.661 36.1334L108.046 40.7097C111.597 43.073 111.95 44.139 115.37 42.0455L124.826 36.7248C125.543 36.3266 126.044 36.1344 126.681 35.7657C130.266 33.6915 130.369 33.5292 133.974 35.5418L142.814 40.4223C146.281 42.5287 153.788 45.3586 153.788 48.0929V72.3638C153.788 74.1054 150.557 75.3063 149.327 75.9941L141.245 80.2249C140.268 80.7205 139.536 81.0709 138.659 81.5094C136.796 82.4408 135.146 83.3901 133.382 84.3234V94.876C134.672 95.1763 137.566 97.0615 138.899 97.802C140.749 98.8289 142.328 99.5714 144.14 100.653L152.042 105.064C152.894 105.544 153.788 106.044 153.788 107.187V131.458C153.788 133.928 150.575 134.825 148.863 135.679L136.905 142.015C134.76 143.132 130.128 146.499 128.166 143.708C127.234 142.382 127.752 122.226 127.752 120.202C126.126 119.114 114.686 113.214 112.975 112.815V129.699C114.9 130.148 121.906 134.01 124.233 135.328C127.813 137.357 126.235 142.155 122.514 140.938C121.346 140.556 119.332 139.385 118.018 138.728C116.341 137.89 115.123 137.246 113.663 136.398C108.824 133.587 107.302 135.225 107.343 128.998L107.283 109.072L101.364 106.132C100.587 109.043 94.8099 113.563 92.5539 114.911C83.1758 120.518 70.7095 120.83 61.46 114.721L52.1069 105.78C50.6217 106.566 48.1768 108.586 46.8293 108.946V129.699L59.8473 137.79C60.5331 137.868 68.9098 132.964 70.1186 132.23C75.5204 128.949 76.6276 127.859 80.6741 130.335L90.8251 136.015C92.5032 136.985 100.309 140.404 100.309 142.363V166.633C100.309 169.265 97.268 169.784 95.3988 170.87L86.4715 175.663C85.3694 176.257 84.4464 176.673 83.4206 177.186C80.0855 178.853 78.5612 179.806 77.2761 180ZM77.0875 134.976L91.1611 143.066C88.0962 143.78 78.6461 149.941 77.0875 149.941C75.4202 149.941 66.0426 143.771 63.0139 143.066L64.4798 142.069C67.3701 140.288 74.2201 136.895 77.0875 134.976ZM26.4226 137.086V120.202L41.1999 112.815V129.699C39.7523 130.037 28.5095 136.6 26.4226 137.086ZM133.382 137.086V119.85L148.094 112.685L148.159 129.348C145.893 130.865 143.255 131.814 140.838 133.285C138.419 134.758 135.848 135.781 133.382 137.086ZM130.567 99.8005L137.588 103.686C138.73 104.346 139.993 104.986 141.19 105.712C142.349 106.416 143.885 106.859 144.641 107.891C142.948 108.285 132.158 113.861 130.567 114.926C128.977 113.861 118.186 108.285 116.494 107.891C117.836 106.724 128.362 100.967 130.567 99.8005ZM9.53438 107.539C11.8013 107.011 22.2366 100.152 23.608 100.152C24.3993 100.152 32.1024 104.735 33.9296 105.662C35.3872 106.402 36.1001 107.171 37.6815 107.539C35.9382 109.054 24.0593 114.766 23.608 114.766C23.0749 114.766 10.3892 108.706 9.53438 107.539ZM53.5143 89.9515C53.5143 69.7452 78.4445 58.3559 93.546 73.1453C105.223 84.5811 101.895 104.294 86.8268 111.296C80.6881 114.149 73.6421 114.103 67.5876 111.409C65.2143 110.352 62.231 108.36 60.4528 106.582C56.4317 102.562 53.5143 96.0016 53.5143 89.9515ZM26.7745 77.9919V60.756L41.2007 53.7228L41.1999 70.605L26.7745 77.9919ZM133.382 77.6401V60.4042L148.159 53.0174V69.9016C143.242 72.5027 138.305 75.0355 133.382 77.6401ZM79.9023 50.9069C79.9023 49.4914 85.2419 47.3567 86.3527 46.8032C99.0487 40.477 95.5412 39.4186 103.831 44.9235C104.846 45.5973 106.104 46.7063 107.346 47.0376C107.346 50.438 107.346 53.8383 107.346 57.2384C107.345 60.776 106.57 64.6253 110.16 64.6253C114.084 64.6253 112.975 59.0175 112.975 53.0174L120.129 56.7695C121.978 57.6923 126.045 60.0066 127.752 60.4042V77.6401L114.802 70.8889C112.493 69.4831 107.346 66.7077 107.346 72.0121C107.346 74.0179 109.18 74.7013 111.565 75.884C113.383 76.7852 115.053 77.6012 116.968 78.5729C118.08 79.1374 118.377 79.4233 119.424 79.9868C120.465 80.5475 121.179 80.8617 122.24 81.3921C124.22 82.3815 126.061 83.1911 127.752 84.3234V94.876C126.529 95.1609 124.808 96.2791 123.548 97.0047C121.94 97.9321 111.428 104.022 110.512 104.022C109.221 104.022 105.993 101.598 104.531 101.207C104.572 99.3852 105.265 98.4349 105.669 96.7173C108.723 83.7485 102.185 69.751 90.4601 63.919C87.8347 62.6131 83.6941 60.8405 79.9023 60.756V50.9069ZM9.8861 49.1482L16.7743 44.7785C25.1817 39.7621 22.674 40.5039 30.5278 44.6923C32.2072 45.5878 36.17 48.0926 37.6815 48.4446C37.0499 49.3064 24.4259 55.6355 24.163 55.6844C22.3762 56.0161 12.7946 49.8256 9.8861 49.1482ZM144.289 47.7411V48.4446C142.856 48.7783 142.234 49.4255 141.007 50.0878L130.567 55.128C129.105 55.128 119.237 49.0836 116.494 48.4446C117.033 47.708 118.758 46.7955 119.658 46.3322L130.097 40.5856C131.284 40.2809 135.03 42.9234 137.134 43.9901C138.518 44.6922 139.152 45.1618 140.537 45.8643C141.995 46.6037 142.707 47.3728 144.289 47.7411ZM80.2541 43.1685V26.2842C85.0442 23.7503 89.8872 21.4327 94.6795 18.8975V35.7815C93.1105 36.6116 81.7311 42.8245 80.2541 43.1685ZM63.3657 13.6212C65.4436 13.1372 75.8153 6.42703 77.1367 6.34439C78.2152 6.27693 82.6257 9.17028 84.0061 9.8701C85.7324 10.7455 89.7136 13.2839 91.1611 13.6212C90.1909 14.945 77.8804 20.8664 77.39 20.8976C76.3619 20.9628 71.6105 18.2703 70.2852 17.6077C68.3433 16.6369 64.4332 15.0776 63.3657 13.6212Z" fill="#5EA395"/>
<path fill-rule="evenodd" clip-rule="evenodd" d="M74.2727 78.6954C70.6966 80.5871 68.9951 81.7678 68.9951 86.4339C68.9951 90.7661 72.5495 92.8639 76.1771 93.3238C77.7831 93.5274 79.5504 93.1854 79.5504 94.8759C79.5504 98.3612 70.0507 93.645 70.0507 99.4486C70.0507 102.407 72.5773 102.263 74.2727 102.263C74.3765 106.92 78.3651 106.363 79.6416 104.818C80.2841 104.041 80.254 103.246 80.254 101.911C81.9867 101.507 83.5732 100.132 84.3765 98.6456C86.4814 94.7493 85.1942 90.4183 81.5286 88.3253C79.3268 87.0682 77.5369 87.7338 74.9765 87.1373C74.6219 85.6567 74.6219 86.1558 74.9765 84.6751C78.6224 83.8259 84.1243 85.71 84.1243 81.5093C84.1243 79.1987 82.3924 78.5215 80.254 78.3435C80.254 75.5609 79.5163 74.4742 77.0875 74.4742C74.6587 74.4742 74.2727 76.2359 74.2727 78.6954Z" fill="#5EA395"/>
</g>
<defs>
<clipPath id="clip0_2078_409">
<rect width="153.577" height="180" fill="white" transform="translate(0.211426)"/>
</clipPath>
</defs>
</svg>
