<svg width="48" height="48" viewBox="0 0 48 48" fill="none" xmlns="http://www.w3.org/2000/svg">
<path fill-rule="evenodd" clip-rule="evenodd" d="M47.3332 24.0001C47.3332 36.8868 36.8866 47.3334 23.9997 47.3334C11.1133 47.3334 0.666504 36.8868 0.666504 24.0001C0.666504 11.1134 11.1133 0.666748 23.9997 0.666748C36.8866 0.666748 47.3332 11.1134 47.3332 24.0001ZM33.8316 14.8728C31.9981 14.0151 30.0374 13.3915 27.9877 13.0365C27.7361 13.4918 27.4418 14.1038 27.2392 14.5909C25.0603 14.2631 22.9014 14.2631 20.7625 14.5909C20.5597 14.1038 20.2589 13.4918 20.005 13.0365C17.953 13.3915 15.9902 14.0174 14.1564 14.8775C10.4581 20.4663 9.45563 25.9161 9.95686 31.2887C12.4098 33.1204 14.787 34.2331 17.1243 34.9613C17.7013 34.167 18.2159 33.3229 18.6593 32.4333C17.815 32.1123 17.006 31.7164 16.2418 31.2568C16.4447 31.1065 16.6428 30.9497 16.8346 30.788C21.4953 32.968 26.5596 32.968 31.1648 30.788C31.3586 30.9497 31.5568 31.1065 31.7573 31.2568C30.9911 31.7187 30.1801 32.1146 29.3357 32.4356C29.7791 33.3229 30.2914 34.1694 30.8708 34.9636C33.2101 34.2354 35.5896 33.1227 38.0425 31.2887C38.6307 25.0606 37.0378 19.6607 33.8316 14.8728ZM19.2942 27.9845C17.8952 27.9845 16.7477 26.6784 16.7477 25.0879C16.7477 23.4973 17.8705 22.1887 19.2942 22.1887C20.718 22.1887 21.8652 23.495 21.8408 25.0879C21.8431 26.6784 20.718 27.9845 19.2942 27.9845ZM28.7052 27.9845C27.3061 27.9845 26.1586 26.6784 26.1586 25.0879C26.1586 23.4973 27.2814 22.1887 28.7052 22.1887C30.1289 22.1887 31.2761 23.495 31.2517 25.0879C31.2517 26.6784 30.1289 27.9845 28.7052 27.9845Z" fill="#262626"/>
</svg>
