<svg width="32" height="32" viewBox="0 0 32 32" fill="none" xmlns="http://www.w3.org/2000/svg">
<path d="M28.7996 20.8003C28.7996 19.917 29.5165 19.2001 30.3998 19.2001C31.2831 19.2001 32 19.917 32 20.8003V27.2C32 28.5209 31.4615 29.7187 30.5939 30.5874V30.5939C29.7258 31.4626 28.5247 32 27.1994 32L4.80003 31.9946C3.47096 31.994 2.27042 31.4583 1.40606 30.5939C0.537373 29.7258 0 28.5247 0 27.1994V20.7998C0 19.9164 0.716859 19.1996 1.60019 19.1996C2.48352 19.1996 3.20038 19.9164 3.20038 20.7998V27.1994C3.20038 27.6408 3.37987 28.0421 3.66889 28.3311C3.96225 28.6245 4.36297 28.8067 4.80003 28.8067L27.1994 28.8056C27.6408 28.7996 28.0421 28.6201 28.3311 28.3311C28.6207 28.0459 28.7996 27.6435 28.7996 27.2V20.8003ZM6.86872 13.9316C6.24405 13.3069 6.24405 12.2934 6.86872 11.6688C7.4934 11.0441 8.50687 11.0441 9.13155 11.6688L14.4001 16.9367V1.60019C14.4001 0.716859 15.1164 0 15.9997 0C16.8836 0 17.5999 0.716859 17.5999 1.60019V16.9367L22.8679 11.6688C23.4926 11.0441 24.5061 11.0441 25.1307 11.6688C25.7554 12.2934 25.7554 13.3069 25.1307 13.9316L17.1504 21.9125C16.8592 22.2134 16.4509 22.4005 15.9997 22.4005C15.5491 22.4005 15.1408 22.2134 14.8496 21.9125L6.86872 13.9316Z" fill="white"/>
</svg>
