<svg width="214" height="180" viewBox="0 0 214 180" fill="none" xmlns="http://www.w3.org/2000/svg">
<g clip-path="url(#clip0_2078_377)">
<path fill-rule="evenodd" clip-rule="evenodd" d="M6.68788 165.416V153.333H80.2496V157.499C80.2496 162.084 84.8473 166.666 89.4449 166.666H124.555C129.153 166.666 133.75 162.084 133.75 157.499V153.333H207.312C207.312 163.824 209.346 173.333 199.37 173.333H14.6294C9.50487 173.333 6.68788 170.525 6.68788 165.416ZM86.9375 156.25V153.333H127.062C127.062 155.539 127.545 160 123.3 160H90.6998C88.6336 160 86.9375 158.309 86.9375 156.25ZM63.5311 97.9168C63.5311 91.5937 64.9985 87.9792 67.4653 83.9212C69.0652 81.2907 74.21 76.1267 77.7423 75.8331C78.6308 79.6354 84.7525 85.3676 88.3517 87.7562C99.6777 95.2749 114.322 95.2749 125.648 87.7562C127.784 86.3376 130.125 84.4504 131.761 82.6009C133.029 81.1698 135.819 77.709 136.258 75.8331C139.703 76.1192 144.825 81.1761 146.377 83.6617C148.72 87.411 150.469 91.5483 150.469 97.4998V146.666H63.5311V97.9168ZM140.437 61.6663V46.6667H177.219V146.666H157.157V94.5832C157.157 88.4151 154.006 82.3062 151.307 78.7484C148.424 74.9488 145.457 72.4039 141.193 70.0794C140.351 69.6209 139.971 69.5428 139.183 69.1661C139.916 67.6454 140.437 64.0184 140.437 61.6663ZM56.8433 94.5832V146.666H36.7809V46.6667H73.563C73.563 51.6569 72.9476 65.2846 74.8167 69.1661C69.1828 72.1381 66.6679 73.51 62.6933 78.7484C59.9938 82.3062 56.8433 88.4151 56.8433 94.5832ZM80.2496 46.2497C86.3323 45.7458 92.6663 38.8532 92.7888 33.3339H121.211C121.334 38.852 127.663 45.7445 133.75 46.2497C133.75 56.1671 134.919 66.7611 129.045 74.8933C120.65 86.5128 107.287 89.7782 93.8947 83.0646C90.3927 81.3097 87.3862 78.1638 85.1355 75.1302C79.5887 67.6517 80.2496 58.8632 80.2496 46.2497ZM140.437 33.3339H186.833C188.898 33.3339 190.594 35.0246 190.594 37.0832V146.666H183.906V43.3332C183.906 41.3175 182.584 39.9997 180.563 39.9997H140.437V33.3339ZM30.0943 43.3332V146.666H23.4064V37.0832C23.4064 35.0246 25.1023 33.3339 27.1673 33.3339H73.563V39.9997H33.4369C31.4162 39.9997 30.0943 41.3175 30.0943 43.3332ZM80.2496 39.1669C80.2496 25.5746 78.0747 16.2417 88.013 9.40592C93.8719 5.37564 107.052 6.66702 115.777 6.66702C123.732 6.66702 128.978 10.4301 131.805 15.6887C134.744 21.1538 133.75 31.1128 133.75 39.1669C126.098 37.1298 129.228 26.6668 123.718 26.6668H90.2815C84.7714 26.6668 87.9018 37.1298 80.2496 39.1669ZM73.563 22.0835V26.6668H25.9137C21.316 26.6668 16.7185 31.2501 16.7185 35.8335V146.666H3.34388C1.32192 146.666 0 147.984 0 150V167.5C0 174.187 6.58426 180 12.1209 180H201.879C205.002 180 208.495 177.814 210.151 176.163C211.807 174.512 214 171.03 214 167.917V150C214 147.984 212.678 146.666 210.656 146.666H197.281V35.8335C197.281 31.2501 192.684 26.6668 188.086 26.6668H140.437V22.0835C140.437 10.7287 129.675 0 118.286 0H95.7145C84.3254 0 73.563 10.7287 73.563 22.0835Z" fill="#5EA395"/>
<path fill-rule="evenodd" clip-rule="evenodd" d="M120.374 106.666C120.374 109.963 129.359 115.954 132.078 120C129.359 124.046 120.374 130.037 120.374 133.333C120.374 135.349 121.696 136.667 123.718 136.667C126.07 136.667 130.382 131.482 132.81 129.062C143.51 118.394 143.77 121.876 128.629 106.771C127.367 105.51 125.938 103.333 123.718 103.333C121.696 103.333 120.374 104.651 120.374 106.666Z" fill="#5EA395"/>
<path fill-rule="evenodd" clip-rule="evenodd" d="M73.5635 120C73.5635 122.344 78.764 126.642 81.1904 129.062C83.6181 131.482 87.93 136.667 90.282 136.667C92.304 136.667 93.626 135.349 93.626 133.333C93.626 130.037 84.6405 124.046 81.9222 120C84.6405 115.954 93.626 109.963 93.626 106.666C93.626 104.651 92.304 103.333 90.282 103.333C87.93 103.333 83.6181 108.518 81.1904 110.937C78.764 113.357 73.5635 117.656 73.5635 120Z" fill="#5EA395"/>
<path fill-rule="evenodd" clip-rule="evenodd" d="M100.312 136.667C100.312 140.315 105.446 141.775 107.133 137.216L117.032 103.333C117.032 99.6843 111.899 98.2242 110.212 102.784L100.312 136.667Z" fill="#5EA395"/>
</g>
<defs>
<clipPath id="clip0_2078_377">
<rect width="214" height="180" fill="white"/>
</clipPath>
</defs>
</svg>
