<svg width="40" height="40" viewBox="0 0 40 40" fill="none" xmlns="http://www.w3.org/2000/svg">
<path d="M19.9997 25.8333L27.4997 18.3333L25.1247 16L19.9997 21.125L14.8747 16L12.4997 18.3333L19.9997 25.8333ZM19.9997 36.6666C17.6941 36.6666 15.5275 36.2289 13.4997 35.3533C11.4719 34.4778 9.70801 33.2905 8.20801 31.7916C6.70801 30.2928 5.52079 28.5289 4.64634 26.5C3.7719 24.4711 3.33412 22.3044 3.33301 20C3.3319 17.6955 3.76968 15.5289 4.64634 13.5C5.52301 11.4711 6.71023 9.7072 8.20801 8.20831C9.70579 6.70942 11.4697 5.5222 13.4997 4.64665C15.5297 3.77109 17.6963 3.33331 19.9997 3.33331C22.303 3.33331 24.4697 3.77109 26.4997 4.64665C28.5297 5.5222 30.2936 6.70942 31.7913 8.20831C33.2891 9.7072 34.4769 11.4711 35.3547 13.5C36.2325 15.5289 36.6697 17.6955 36.6663 20C36.663 22.3044 36.2252 24.4711 35.353 26.5C34.4808 28.5289 33.2936 30.2928 31.7913 31.7916C30.2891 33.2905 28.5252 34.4783 26.4997 35.355C24.4741 36.2316 22.3075 36.6689 19.9997 36.6666ZM19.9997 33.3333C23.7219 33.3333 26.8747 32.0416 29.458 29.4583C32.0413 26.875 33.333 23.7222 33.333 20C33.333 16.2778 32.0413 13.125 29.458 10.5416C26.8747 7.95831 23.7219 6.66665 19.9997 6.66665C16.2775 6.66665 13.1247 7.95831 10.5413 10.5416C7.95801 13.125 6.66634 16.2778 6.66634 20C6.66634 23.7222 7.95801 26.875 10.5413 29.4583C13.1247 32.0416 16.2775 33.3333 19.9997 33.3333Z" fill="#F6F6F6"/>
</svg>
