<svg width="50" height="48" viewBox="0 0 50 48" fill="none" xmlns="http://www.w3.org/2000/svg">
<path d="M25.1664 0.666748C11.6301 0.666748 0.666504 11.3795 0.666504 24.5924C0.666504 35.1659 7.68533 44.1317 17.4182 47.292C18.6437 47.5175 19.0927 46.7775 19.0927 46.1415C19.0927 45.5732 19.0727 44.0677 19.0619 42.0738C12.2466 43.5176 10.8097 38.8637 10.8097 38.8637C9.69471 36.1025 8.08358 35.3648 8.08358 35.3648C5.86417 33.8809 8.25493 33.9112 8.25493 33.9112C10.7149 34.0783 12.0073 36.3752 12.0073 36.3752C14.192 40.0337 17.7424 38.9773 19.143 38.3655C19.3636 36.8184 19.994 35.7635 20.6946 35.1651C15.2538 34.5667 9.53493 32.5096 9.53493 23.3417C9.53493 20.7296 10.4841 18.5964 12.0568 16.9213C11.7812 16.317 10.9542 13.8843 12.2713 10.5891C12.2713 10.5891 14.323 9.94698 19.0088 13.0412C20.9686 12.5092 23.0515 12.2454 25.134 12.2334C27.2168 12.2454 29.2996 12.5084 31.2595 13.0412C35.9149 9.94698 37.9667 10.5891 37.9667 10.5891C39.2841 13.8851 38.4568 16.317 38.2123 16.9213C39.7739 18.5964 40.723 20.7296 40.723 23.3417C40.723 32.5327 34.9958 34.5569 29.5449 35.1448C30.4022 35.8629 31.1984 37.3301 31.1984 39.571C31.1984 42.773 31.1676 45.345 31.1676 46.1225C31.1676 46.7505 31.5967 47.4987 32.8522 47.2589C42.6537 44.122 49.6665 35.1499 49.6665 24.5924C49.6665 11.3795 38.6968 0.666748 25.1664 0.666748Z" fill="#262626"/>
</svg>
