<svg width="65" height="64" viewBox="0 0 65 64" fill="none" xmlns="http://www.w3.org/2000/svg">
<rect x="0.5" width="64" height="64" rx="16" fill="#5EA395"/>
<path d="M45.3261 23.804C45.1015 24.01 44.8089 24.126 44.5041 24.13H15.6601C14.6361 24.13 14.1201 22.96 14.8281 22.274L19.5661 17.706C19.7862 17.4927 20.0796 17.3718 20.3861 17.368H49.3401C50.3741 17.368 50.8801 18.548 50.1601 19.238L45.3261 23.804Z" fill="#F6F6F6"/>
<path d="M45.3261 46.316C45.1 46.5184 44.8075 46.6308 44.5041 46.632H15.6601C14.6361 46.632 14.1201 45.472 14.8281 44.786L19.5661 40.206C19.7881 39.9971 20.0813 39.8806 20.3861 39.88H49.3401C50.3741 39.88 50.8801 41.052 50.1601 41.736L45.3261 46.316Z" fill="#F6F6F6"/>
<path d="M45.3261 28.946C45.1 28.7436 44.8075 28.6312 44.5041 28.63H15.6601C14.6361 28.63 14.1201 29.79 14.8281 30.476L19.5661 35.056C19.7881 35.262 20.0801 35.376 20.3861 35.382H49.3401C50.3741 35.382 50.8801 34.21 50.1601 33.526L45.3261 28.946Z" fill="#F6F6F6"/>
</svg>
