<svg width="65" height="64" viewBox="0 0 65 64" fill="none" xmlns="http://www.w3.org/2000/svg">
<rect x="0.5" width="64" height="64" rx="16" fill="#5EA395"/>
<path d="M52 47C52 47.3978 51.842 47.7794 51.5607 48.0607C51.2794 48.342 50.8978 48.5 50.5 48.5H14.5C14.1022 48.5 13.7206 48.342 13.4393 48.0607C13.158 47.7794 13 47.3978 13 47V17C13 16.6022 13.158 16.2206 13.4393 15.9393C13.7206 15.658 14.1022 15.5 14.5 15.5C14.8978 15.5 15.2794 15.658 15.5607 15.9393C15.842 16.2206 16 16.6022 16 17V34.6944L25.5119 26.375C25.7707 26.1484 26.0996 26.0177 26.4433 26.0047C26.7871 25.9917 27.1248 26.0973 27.4 26.3038L38.4269 34.5744L49.5119 24.875C49.6572 24.7311 49.8304 24.6185 50.0209 24.544C50.2114 24.4696 50.4151 24.4348 50.6194 24.4419C50.8238 24.4491 51.0246 24.4979 51.2094 24.5855C51.3942 24.6731 51.5592 24.7975 51.6941 24.9512C51.8291 25.1048 51.9312 25.2844 51.9942 25.479C52.0572 25.6736 52.0797 25.879 52.0604 26.0826C52.0412 26.2861 51.9804 26.4836 51.882 26.6629C51.7836 26.8422 51.6496 26.9994 51.4881 27.125L39.4881 37.625C39.2293 37.8516 38.9004 37.9823 38.5567 37.9953C38.2129 38.0083 37.8752 37.9027 37.6 37.6963L26.5731 29.4294L16 38.6806V45.5H50.5C50.8978 45.5 51.2794 45.658 51.5607 45.9393C51.842 46.2206 52 46.6022 52 47Z" fill="#F6F6F6"/>
</svg>
