<svg width="65" height="64" viewBox="0 0 65 64" fill="none" xmlns="http://www.w3.org/2000/svg">
<rect x="0.5" width="64" height="64" rx="16" fill="#5EA395"/>
<g clip-path="url(#clip0_2078_326)">
<path d="M51.6869 34.4488C51.1287 34.0193 50.479 33.7243 49.7883 33.5868C49.0976 33.4492 48.3845 33.4728 47.7044 33.6556L39.8594 35.4594C40.0419 34.6884 40.0475 33.886 39.8759 33.1125C39.7042 32.339 39.3597 31.6144 38.8681 30.993C38.3766 30.3716 37.7508 29.8695 37.0376 29.5243C36.3244 29.1792 35.5423 28.9999 34.75 29H25.3638C24.5755 28.998 23.7947 29.1523 23.0664 29.4538C22.3381 29.7554 21.6768 30.1983 21.1206 30.7569L16.8794 35H11.5C10.7044 35 9.94129 35.3161 9.37868 35.8787C8.81607 36.4413 8.5 37.2044 8.5 38V45.5C8.5 46.2957 8.81607 47.0587 9.37868 47.6213C9.94129 48.1839 10.7044 48.5 11.5 48.5H31C31.1226 48.5001 31.2448 48.4849 31.3638 48.455L43.3638 45.455C43.4402 45.4368 43.5149 45.4117 43.5869 45.38L50.875 42.2788L50.9575 42.2413C51.6579 41.8912 52.2578 41.3687 52.7004 40.7228C53.1431 40.0769 53.414 39.329 53.4878 38.5494C53.5615 37.7699 53.4355 36.9844 53.1218 36.267C52.808 35.5496 52.3168 34.9238 51.6944 34.4488H51.6869ZM11.5 38H16V45.5H11.5V38ZM49.6431 39.5394L42.5181 42.5731L30.8125 45.5H19V37.1206L23.2431 32.8794C23.5207 32.5996 23.8511 32.3778 24.2152 32.2268C24.5792 32.0758 24.9696 31.9987 25.3638 32H34.75C35.3467 32 35.919 32.2371 36.341 32.659C36.7629 33.081 37 33.6533 37 34.25C37 34.8467 36.7629 35.419 36.341 35.841C35.919 36.2629 35.3467 36.5 34.75 36.5H29.5C29.1022 36.5 28.7206 36.658 28.4393 36.9393C28.158 37.2206 28 37.6022 28 38C28 38.3978 28.158 38.7794 28.4393 39.0607C28.7206 39.342 29.1022 39.5 29.5 39.5H35.5C35.6129 39.4997 35.7254 39.4871 35.8356 39.4625L48.3981 36.5731L48.4563 36.5581C48.8397 36.4517 49.2491 36.4908 49.6054 36.668C49.9618 36.8451 50.2401 37.1479 50.3867 37.5179C50.5333 37.8879 50.5379 38.299 50.3996 38.6722C50.2613 39.0454 49.9898 39.3543 49.6375 39.5394H49.6431ZM39.25 26C39.6206 26.0004 39.9906 25.9703 40.3562 25.91C40.7675 27.1316 41.52 28.21 42.5247 29.0175C43.5295 29.8251 44.7444 30.328 46.0259 30.467C47.3074 30.6059 48.6019 30.375 49.7563 29.8015C50.9108 29.2281 51.8769 28.3361 52.5404 27.2309C53.204 26.1258 53.5372 24.8538 53.5007 23.5653C53.4643 22.2768 53.0596 21.0257 52.3346 19.9599C51.6096 18.8941 50.5946 18.0581 49.4096 17.5509C48.2246 17.0436 46.9191 16.8863 45.6475 17.0975C45.2515 15.9205 44.5384 14.8755 43.5868 14.0776C42.6352 13.2797 41.4819 12.7598 40.2538 12.5751C39.0257 12.3904 37.7705 12.5481 36.6263 13.0307C35.4821 13.5134 34.4932 14.3025 33.7685 15.3109C33.0437 16.3194 32.6113 17.5083 32.5187 18.7467C32.4261 19.9851 32.6769 21.2251 33.2436 22.3301C33.8103 23.4352 34.6709 24.3625 35.7306 25.0099C36.7903 25.6574 38.0081 26 39.25 26ZM50.5 23.75C50.5 24.4917 50.2801 25.2167 49.868 25.8334C49.456 26.4501 48.8703 26.9307 48.1851 27.2146C47.4998 27.4984 46.7458 27.5726 46.0184 27.4279C45.291 27.2833 44.6228 26.9261 44.0984 26.4017C43.5739 25.8772 43.2168 25.209 43.0721 24.4816C42.9274 23.7542 43.0016 23.0002 43.2855 22.3149C43.5693 21.6297 44.0499 21.044 44.6666 20.632C45.2833 20.2199 46.0083 20 46.75 20C47.7446 20 48.6984 20.3951 49.4016 21.0984C50.1049 21.8016 50.5 22.7554 50.5 23.75ZM39.25 15.5C40.0681 15.5004 40.8636 15.7683 41.5152 16.2629C42.1669 16.7575 42.6389 17.4516 42.8594 18.2394C42.0911 18.7799 41.4442 19.4749 40.9599 20.2798C40.4756 21.0847 40.1646 21.9818 40.0469 22.9138C39.785 22.9703 39.5179 22.9992 39.25 23C38.2554 23 37.3016 22.6049 36.5984 21.9017C35.8951 21.1984 35.5 20.2446 35.5 19.25C35.5 18.2554 35.8951 17.3016 36.5984 16.5984C37.3016 15.8951 38.2554 15.5 39.25 15.5Z" fill="#F6F6F6"/>
</g>
<defs>
<clipPath id="clip0_2078_326">
<rect width="48" height="48" fill="white" transform="translate(8.5 8)"/>
</clipPath>
</defs>
</svg>
