<svg width="49" height="48" viewBox="0 0 49 48" fill="none" xmlns="http://www.w3.org/2000/svg">
<rect x="0.5" width="48" height="48" rx="16" fill="#87C1B3"/>
<g clip-path="url(#clip0_2176_259)">
<path d="M37.2913 25.6325C36.9191 25.3462 36.486 25.1496 36.0255 25.0578C35.5651 24.9661 35.0897 24.9819 34.6362 25.1038L29.4062 26.3063C29.5279 25.7922 29.5317 25.2574 29.4172 24.7417C29.3028 24.226 29.0731 23.7429 28.7454 23.3287C28.4177 22.9144 28.0005 22.5797 27.5251 22.3495C27.0496 22.1194 26.5282 21.9999 26 22H19.7425C19.217 21.9987 18.6964 22.1015 18.2109 22.3025C17.7254 22.5036 17.2845 22.7988 16.9137 23.1713L14.0862 26H10.5C9.96957 26 9.46086 26.2107 9.08579 26.5858C8.71071 26.9609 8.5 27.4696 8.5 28V33C8.5 33.5304 8.71071 34.0391 9.08579 34.4142C9.46086 34.7893 9.96957 35 10.5 35H23.5C23.5818 35 23.6632 34.99 23.7425 34.97L31.7425 32.97C31.7935 32.9579 31.8433 32.9411 31.8913 32.92L36.75 30.8525L36.805 30.8275C37.272 30.5942 37.6718 30.2458 37.9669 29.8152C38.2621 29.3846 38.4427 28.886 38.4918 28.3663C38.541 27.8466 38.457 27.3229 38.2478 26.8447C38.0387 26.3664 37.7112 25.9492 37.2962 25.6325H37.2913ZM10.5 28H13.5V33H10.5V28ZM35.9287 29.0263L31.1787 31.0488L23.375 33H15.5V27.4138L18.3287 24.5863C18.5138 24.3997 18.7341 24.2518 18.9768 24.1512C19.2195 24.0506 19.4798 23.9992 19.7425 24H26C26.3978 24 26.7794 24.158 27.0607 24.4393C27.342 24.7206 27.5 25.1022 27.5 25.5C27.5 25.8978 27.342 26.2794 27.0607 26.5607C26.7794 26.842 26.3978 27 26 27H22.5C22.2348 27 21.9804 27.1054 21.7929 27.2929C21.6054 27.4804 21.5 27.7348 21.5 28C21.5 28.2652 21.6054 28.5196 21.7929 28.7071C21.9804 28.8946 22.2348 29 22.5 29H26.5C26.5753 28.9998 26.6503 28.9914 26.7237 28.975L35.0987 27.0488L35.1375 27.0388C35.3932 26.9678 35.666 26.9939 35.9036 27.112C36.1412 27.2301 36.3267 27.4319 36.4245 27.6786C36.5222 27.9253 36.5253 28.1994 36.4331 28.4482C36.3409 28.697 36.1599 28.9029 35.925 29.0263H35.9287ZM29 20C29.2471 20.0003 29.4937 19.9802 29.7375 19.94C30.0117 20.7544 30.5133 21.4733 31.1832 22.0117C31.853 22.55 32.6629 22.8854 33.5173 22.978C34.3716 23.0706 35.2346 22.9167 36.0042 22.5344C36.7739 22.1521 37.4179 21.5574 37.8603 20.8206C38.3026 20.0839 38.5248 19.2359 38.5005 18.3769C38.4762 17.5179 38.2064 16.6838 37.7231 15.9732C37.2398 15.2627 36.5631 14.7054 35.7731 14.3672C34.9831 14.0291 34.1127 13.9242 33.265 14.065C33.001 13.2803 32.5256 12.5837 31.8912 12.0517C31.2568 11.5198 30.4879 11.1732 29.6692 11.05C28.8505 10.9269 28.0137 11.032 27.2509 11.3538C26.488 11.6756 25.8288 12.2016 25.3456 12.874C24.8625 13.5463 24.5742 14.3389 24.5125 15.1645C24.4507 15.9901 24.618 16.8167 24.9958 17.5534C25.3735 18.2901 25.9472 18.9083 26.6537 19.34C27.3602 19.7716 28.1721 20 29 20ZM36.5 18.5C36.5 18.9945 36.3534 19.4778 36.0787 19.8889C35.804 20.3001 35.4135 20.6205 34.9567 20.8097C34.4999 20.9989 33.9972 21.0484 33.5123 20.952C33.0273 20.8555 32.5819 20.6174 32.2322 20.2678C31.8826 19.9181 31.6445 19.4727 31.548 18.9877C31.4516 18.5028 31.5011 18.0001 31.6903 17.5433C31.8795 17.0865 32.2 16.696 32.6111 16.4213C33.0222 16.1466 33.5055 16 34 16C34.663 16 35.2989 16.2634 35.7678 16.7322C36.2366 17.2011 36.5 17.837 36.5 18.5ZM29 13C29.5454 13.0003 30.0757 13.1789 30.5101 13.5086C30.9446 13.8383 31.2593 14.301 31.4062 14.8263C30.8941 15.1866 30.4628 15.6499 30.1399 16.1865C29.8171 16.7231 29.6097 17.3212 29.5312 17.9425C29.3567 17.9802 29.1786 17.9995 29 18C28.337 18 27.7011 17.7366 27.2322 17.2678C26.7634 16.7989 26.5 16.163 26.5 15.5C26.5 14.837 26.7634 14.2011 27.2322 13.7322C27.7011 13.2634 28.337 13 29 13Z" fill="#262626"/>
</g>
<defs>
<clipPath id="clip0_2176_259">
<rect width="32" height="32" fill="white" transform="translate(8.5 8)"/>
</clipPath>
</defs>
</svg>
