<svg width="49" height="48" viewBox="0 0 49 48" fill="none" xmlns="http://www.w3.org/2000/svg">
<rect x="0.5" width="48" height="48" rx="16" fill="#87C1B3"/>
<path d="M33.0506 18.536C32.9008 18.6733 32.7057 18.7507 32.5026 18.7533H13.2732C12.5906 18.7533 12.2466 17.9733 12.7186 17.516L15.8772 14.4707C16.024 14.3285 16.2196 14.2479 16.4239 14.2453H35.7266C36.4159 14.2453 36.7532 15.032 36.2732 15.492L33.0506 18.536Z" fill="#262626"/>
<path d="M33.0506 33.544C32.8998 33.6789 32.7049 33.7539 32.5026 33.7547H13.2732C12.5906 33.7547 12.2466 32.9813 12.7186 32.524L15.8772 29.4707C16.0252 29.3314 16.2207 29.2537 16.4239 29.2533H35.7266C36.4159 29.2533 36.7532 30.0347 36.2732 30.4907L33.0506 33.544Z" fill="#262626"/>
<path d="M33.0506 21.964C32.8998 21.8291 32.7049 21.7541 32.5026 21.7533H13.2732C12.5906 21.7533 12.2466 22.5267 12.7186 22.984L15.8772 26.0373C16.0252 26.1747 16.2199 26.2507 16.4239 26.2547H35.7266C36.4159 26.2547 36.7532 25.4733 36.2732 25.0173L33.0506 21.964Z" fill="#262626"/>
</svg>
