<svg width="32" height="32" viewBox="0 0 32 32" fill="none" xmlns="http://www.w3.org/2000/svg">
<path d="M27.4637 14.6725C27.4105 14.4347 27.3002 14.2135 27.1423 14.0279C26.9844 13.8424 26.7837 13.6981 26.5575 13.6075L20.16 11.0488L21.4837 2.2225C21.5323 1.90556 21.4781 1.58139 21.329 1.29753C21.1798 1.01368 20.9437 0.785083 20.6551 0.645276C20.3665 0.505469 20.0408 0.461809 19.7256 0.5207C19.4104 0.579591 19.1224 0.737933 18.9037 0.972501L4.90375 15.9725C4.73734 16.1507 4.61688 16.3668 4.5528 16.6021C4.48873 16.8374 4.48298 17.0847 4.53604 17.3227C4.58911 17.5607 4.69939 17.7821 4.85734 17.9679C5.01529 18.1537 5.21614 18.2981 5.4425 18.3888L11.84 20.9475L10.5163 29.7775C10.4677 30.0944 10.5219 30.4186 10.671 30.7025C10.8202 30.9863 11.0563 31.2149 11.3449 31.3547C11.6335 31.4945 11.9592 31.5382 12.2744 31.4793C12.5896 31.4204 12.8776 31.2621 13.0963 31.0275L27.0962 16.0275C27.2634 15.8488 27.3843 15.6318 27.4483 15.3957C27.5124 15.1595 27.5177 14.9112 27.4637 14.6725ZM14.2 25.4438L14.9838 20.2225C15.0338 19.8883 14.9696 19.547 14.8015 19.2539C14.6334 18.9608 14.3712 18.733 14.0575 18.6075L8.5925 16.4213L17.8 6.55625L17.0163 11.7775C16.9662 12.1117 17.0304 12.453 17.1985 12.7461C17.3666 13.0392 17.6288 13.267 17.9425 13.3925L23.4075 15.5788L14.2 25.4438Z" fill="#D1D1D1"/>
</svg>
