<svg width="24" height="24" viewBox="0 0 24 24" fill="none" xmlns="http://www.w3.org/2000/svg">
<path d="M20.5978 11.0044C20.5579 10.826 20.4752 10.6601 20.3567 10.5209C20.2383 10.3818 20.0878 10.2735 19.9181 10.2056L15.12 8.28656L16.1128 1.66687C16.1493 1.42917 16.1086 1.18604 15.9967 0.973146C15.8849 0.760256 15.7077 0.588809 15.4913 0.483954C15.2749 0.379099 15.0306 0.346354 14.7942 0.390522C14.5578 0.43469 14.3418 0.553447 14.1778 0.729373L3.67781 11.9794C3.553 12.113 3.46266 12.2751 3.4146 12.4516C3.36655 12.628 3.36223 12.8135 3.40203 12.992C3.44183 13.1705 3.52454 13.3366 3.643 13.4759C3.76146 13.6152 3.9121 13.7236 4.08187 13.7916L8.88 15.7106L7.88719 22.3331C7.85074 22.5708 7.89143 22.814 8.00328 23.0269C8.11513 23.2397 8.29225 23.4112 8.50867 23.516C8.7251 23.6209 8.96942 23.6536 9.20582 23.6095C9.44221 23.5653 9.65823 23.4465 9.82219 23.2706L20.3222 12.0206C20.4475 11.8866 20.5382 11.7239 20.5862 11.5467C20.6343 11.3696 20.6383 11.1834 20.5978 11.0044ZM10.65 19.0828L11.2378 15.1669C11.2754 14.9162 11.2272 14.6603 11.1011 14.4404C10.975 14.2206 10.7784 14.0498 10.5431 13.9556L6.44437 12.3159L13.35 4.91719L12.7622 8.83312C12.7246 9.08375 12.7728 9.33973 12.8989 9.55957C13.025 9.77941 13.2216 9.95023 13.4569 10.0444L17.5556 11.6841L10.65 19.0828Z" fill="#2CD122"/>
</svg>
