<svg width="49" height="48" viewBox="0 0 49 48" fill="none" xmlns="http://www.w3.org/2000/svg">
<rect x="0.5" width="48" height="48" rx="16" fill="#87C1B3"/>
<path d="M37.5 34C37.5 34.2652 37.3946 34.5196 37.2071 34.7071C37.0196 34.8946 36.7652 35 36.5 35H12.5C12.2348 35 11.9804 34.8946 11.7929 34.7071C11.6054 34.5196 11.5 34.2652 11.5 34V14C11.5 13.7348 11.6054 13.4804 11.7929 13.2929C11.9804 13.1054 12.2348 13 12.5 13C12.7652 13 13.0196 13.1054 13.2071 13.2929C13.3946 13.4804 13.5 13.7348 13.5 14V25.7962L19.8413 20.25C20.0138 20.0989 20.233 20.0118 20.4622 20.0031C20.6914 19.9945 20.9166 20.0649 21.1 20.2025L28.4513 25.7162L35.8413 19.25C35.9381 19.1541 36.0536 19.079 36.1806 19.0293C36.3076 18.9797 36.4434 18.9565 36.5796 18.9613C36.7159 18.9661 36.8497 18.9986 36.9729 19.057C37.0961 19.1154 37.2061 19.1983 37.2961 19.3008C37.3861 19.4032 37.4541 19.523 37.4961 19.6527C37.5381 19.7824 37.5532 19.9193 37.5403 20.055C37.5274 20.1908 37.487 20.3224 37.4213 20.4419C37.3557 20.5615 37.2664 20.6663 37.1588 20.75L29.1588 27.75C28.9862 27.9011 28.767 27.9882 28.5378 27.9969C28.3086 28.0055 28.0835 27.9351 27.9 27.7975L20.5488 22.2863L13.5 28.4538V33H36.5C36.7652 33 37.0196 33.1054 37.2071 33.2929C37.3946 33.4804 37.5 33.7348 37.5 34Z" fill="#262626"/>
</svg>
