<svg width="40" height="40" viewBox="0 0 40 40" fill="none" xmlns="http://www.w3.org/2000/svg">
<path d="M30.097 10.7361C28.2497 9.87503 26.2497 9.25003 24.1664 8.88892C24.1298 8.88944 24.0948 8.90441 24.0692 8.93058C23.8192 9.38892 23.5275 9.98614 23.3331 10.4445C21.1233 10.1113 18.8761 10.1113 16.6664 10.4445C16.472 9.97225 16.1803 9.38892 15.9164 8.93058C15.9025 8.90281 15.8608 8.88892 15.8192 8.88892C13.7358 9.25003 11.7497 9.87503 9.88862 10.7361C9.87473 10.7361 9.86084 10.75 9.84695 10.7639C6.06917 16.4167 5.02751 21.9167 5.5414 27.3611C5.5414 27.3889 5.55528 27.4167 5.58306 27.4306C8.08306 29.2639 10.4858 30.375 12.8608 31.1111C12.9025 31.125 12.9442 31.1111 12.9581 31.0834C13.5136 30.3195 14.0136 29.5139 14.4442 28.6667C14.472 28.6111 14.4442 28.5556 14.3886 28.5417C13.597 28.2361 12.847 27.875 12.1108 27.4584C12.0553 27.4306 12.0553 27.3472 12.097 27.3056C12.2497 27.1945 12.4025 27.0695 12.5553 26.9584C12.5831 26.9306 12.6247 26.9306 12.6525 26.9445C17.4303 29.125 22.5831 29.125 27.3053 26.9445C27.3331 26.9306 27.3747 26.9306 27.4025 26.9584C27.5553 27.0834 27.7081 27.1945 27.8608 27.3195C27.9164 27.3611 27.9164 27.4445 27.847 27.4722C27.1247 27.9028 26.3608 28.25 25.5692 28.5556C25.5136 28.5695 25.4997 28.6389 25.5136 28.6806C25.9581 29.5278 26.4581 30.3334 26.9997 31.0972C27.0414 31.1111 27.0831 31.125 27.1247 31.1111C29.5136 30.375 31.9164 29.2639 34.4164 27.4306C34.4442 27.4167 34.4581 27.3889 34.4581 27.3611C35.0692 21.0695 33.4442 15.6111 30.1525 10.7639C30.1386 10.75 30.1247 10.7361 30.097 10.7361ZM15.1664 24.0417C13.7358 24.0417 12.5414 22.7222 12.5414 21.0972C12.5414 19.4722 13.7081 18.1528 15.1664 18.1528C16.6386 18.1528 17.8053 19.4861 17.7914 21.0972C17.7914 22.7222 16.6247 24.0417 15.1664 24.0417ZM24.847 24.0417C23.4164 24.0417 22.222 22.7222 22.222 21.0972C22.222 19.4722 23.3886 18.1528 24.847 18.1528C26.3192 18.1528 27.4858 19.4861 27.472 21.0972C27.472 22.7222 26.3192 24.0417 24.847 24.0417Z" fill="#F6F6F6"/>
</svg>
