<svg width="40" height="40" viewBox="0 0 40 40" fill="none" xmlns="http://www.w3.org/2000/svg">
<path d="M11.6667 21.6666H28.3334V18.3333H11.6667V21.6666ZM20 36.6666C17.6945 36.6666 15.5278 36.2289 13.5 35.3533C11.4723 34.4778 9.70838 33.2905 8.20838 31.7916C6.70838 30.2928 5.52115 28.5289 4.64671 26.5C3.77227 24.4711 3.33449 22.3044 3.33338 20C3.33227 17.6955 3.77004 15.5289 4.64671 13.5C5.52338 11.4711 6.7106 9.7072 8.20838 8.20831C9.70615 6.70942 11.47 5.5222 13.5 4.64665C15.53 3.77109 17.6967 3.33331 20 3.33331C22.3034 3.33331 24.47 3.77109 26.5 4.64665C28.53 5.5222 30.2939 6.70942 31.7917 8.20831C33.2895 9.7072 34.4773 11.4711 35.355 13.5C36.2328 15.5289 36.67 17.6955 36.6667 20C36.6634 22.3044 36.2256 24.4711 35.3534 26.5C34.4812 28.5289 33.2939 30.2928 31.7917 31.7916C30.2895 33.2905 28.5256 34.4783 26.5 35.355C24.4745 36.2316 22.3078 36.6689 20 36.6666ZM20 33.3333C23.7223 33.3333 26.875 32.0416 29.4584 29.4583C32.0417 26.875 33.3334 23.7222 33.3334 20C33.3334 16.2778 32.0417 13.125 29.4584 10.5416C26.875 7.95831 23.7223 6.66665 20 6.66665C16.2778 6.66665 13.125 7.95831 10.5417 10.5416C7.95838 13.125 6.66671 16.2778 6.66671 20C6.66671 23.7222 7.95838 26.875 10.5417 29.4583C13.125 32.0416 16.2778 33.3333 20 33.3333Z" fill="#F6F6F6"/>
</svg>
