<svg width="40" height="40" viewBox="0 0 40 40" fill="none" xmlns="http://www.w3.org/2000/svg">
<path d="M18.3335 28.3334H21.6668V21.6667H28.3335V18.3334H21.6668V11.6667H18.3335V18.3334H11.6668V21.6667H18.3335V28.3334ZM20.0002 36.6667C17.6946 36.6667 15.5279 36.2289 13.5002 35.3534C11.4724 34.4778 9.7085 33.2906 8.2085 31.7917C6.7085 30.2928 5.52128 28.5289 4.64683 26.5C3.77239 24.4712 3.33461 22.3045 3.3335 20C3.33239 17.6956 3.77016 15.5289 4.64683 13.5C5.5235 11.4712 6.71072 9.70726 8.2085 8.20837C9.70628 6.70949 11.4702 5.52226 13.5002 4.64671C15.5302 3.77115 17.6968 3.33337 20.0002 3.33337C22.3035 3.33337 24.4702 3.77115 26.5002 4.64671C28.5302 5.52226 30.2941 6.70949 31.7918 8.20837C33.2896 9.70726 34.4774 11.4712 35.3552 13.5C36.2329 15.5289 36.6702 17.6956 36.6668 20C36.6635 22.3045 36.2257 24.4712 35.3535 26.5C34.4813 28.5289 33.2941 30.2928 31.7918 31.7917C30.2896 33.2906 28.5257 34.4784 26.5002 35.355C24.4746 36.2317 22.3079 36.6689 20.0002 36.6667ZM20.0002 33.3334C23.7224 33.3334 26.8752 32.0417 29.4585 29.4584C32.0418 26.875 33.3335 23.7223 33.3335 20C33.3335 16.2778 32.0418 13.125 29.4585 10.5417C26.8752 7.95837 23.7224 6.66671 20.0002 6.66671C16.2779 6.66671 13.1252 7.95837 10.5418 10.5417C7.9585 13.125 6.66683 16.2778 6.66683 20C6.66683 23.7223 7.9585 26.875 10.5418 29.4584C13.1252 32.0417 16.2779 33.3334 20.0002 33.3334Z" fill="#F6F6F6"/>
</svg>
