<svg width="25" height="24" viewBox="0 0 25 24" fill="none" xmlns="http://www.w3.org/2000/svg">
<path d="M11.5 17H13.5V13H17.5V11H13.5V7H11.5V11H7.5V13H11.5V17ZM12.5 22C11.1167 22 9.81667 21.7373 8.6 21.212C7.38334 20.6867 6.325 19.9743 5.425 19.075C4.525 18.1757 3.81267 17.1173 3.288 15.9C2.76333 14.6827 2.50067 13.3827 2.5 12C2.49933 10.6173 2.762 9.31733 3.288 8.1C3.814 6.88267 4.52633 5.82433 5.425 4.925C6.32367 4.02567 7.382 3.31333 8.6 2.788C9.818 2.26267 11.118 2 12.5 2C13.882 2 15.182 2.26267 16.4 2.788C17.618 3.31333 18.6763 4.02567 19.575 4.925C20.4737 5.82433 21.1863 6.88267 21.713 8.1C22.2397 9.31733 22.502 10.6173 22.5 12C22.498 13.3827 22.2353 14.6827 21.712 15.9C21.1887 17.1173 20.4763 18.1757 19.575 19.075C18.6737 19.9743 17.6153 20.687 16.4 21.213C15.1847 21.739 13.8847 22.0013 12.5 22ZM12.5 20C14.7333 20 16.625 19.225 18.175 17.675C19.725 16.125 20.5 14.2333 20.5 12C20.5 9.76667 19.725 7.875 18.175 6.325C16.625 4.775 14.7333 4 12.5 4C10.2667 4 8.375 4.775 6.825 6.325C5.275 7.875 4.5 9.76667 4.5 12C4.5 14.2333 5.275 16.125 6.825 17.675C8.375 19.225 10.2667 20 12.5 20Z" fill="#262626"/>
</svg>
