<svg width="162" height="32" viewBox="0 0 162 32" fill="none" xmlns="http://www.w3.org/2000/svg">
<path d="M25.9668 0.434082L16.1601 6.09612V23.7675L10.7493 26.9212L5.30601 23.7651V17.4564L10.7493 14.3311L14.2496 16.3718V11.2672L10.7193 9.25204L0.915039 14.9777V26.3047L10.7517 32L20.5559 26.3047V8.63577L25.9994 5.47961L31.441 8.63577V14.9167L25.9994 18.1006L22.4689 16.0419V21.121L25.9668 23.149L35.867 17.4865V6.09612L25.9668 0.434082ZM83.4995 24.967H87.895V0.743309H83.4995V24.967ZM55.2404 7.74841C57.3239 7.74841 59.0508 8.58937 60.4172 10.2698C61.7857 11.9501 62.4673 14.0342 62.4673 16.5229C62.4673 19.0113 61.7833 21.0952 60.4172 22.7752C59.0484 24.4554 57.3239 25.2971 55.2404 25.2971C53.7651 25.2971 52.483 24.8392 51.3994 23.9213C50.336 22.9826 49.5548 21.7168 49.0542 20.1233V31.5144H44.6584V8.07537H49.0542V12.9193C49.5524 11.3263 50.336 10.0704 51.3994 9.15463C52.4854 8.21626 53.7651 7.74841 55.2404 7.74841ZM53.6431 21.2691C54.8362 21.2691 55.8459 20.8217 56.6701 19.9263C57.4945 19.0113 57.9065 17.8754 57.9065 16.5229C57.9065 15.1696 57.4945 14.0782 56.6701 13.1828C55.8459 12.2671 54.8362 11.8067 53.6431 11.8067C52.3175 11.8067 51.2237 12.2542 50.3539 13.1496C49.4865 14.0447 49.0515 15.1672 49.0515 16.5202C49.0515 17.873 49.4865 19.0084 50.3539 19.9239C51.221 20.8193 52.3175 21.2667 53.6431 21.2667V21.2691ZM63.6351 16.5229C63.6351 19.0113 64.4926 21.0952 66.2069 22.7752C67.9216 24.4554 70.0605 25.2971 72.6224 25.2971C75.1838 25.2971 77.3231 24.4554 79.0374 22.7752C80.7522 21.0952 81.6095 19.0113 81.6095 16.5229C81.6095 14.0342 80.7522 11.9501 79.0374 10.2698C77.3231 8.58937 75.1838 7.74841 72.6224 7.74841C70.0605 7.74841 67.9216 8.58937 66.2069 10.2698C64.4926 11.9501 63.6351 14.0342 63.6351 16.5229ZM69.4627 19.9263C68.6156 19.0113 68.1935 17.8754 68.1935 16.5229C68.1935 15.1696 68.6156 14.0782 69.4627 13.1828C70.3096 12.2671 71.3631 11.8067 72.6224 11.8067C73.8815 11.8067 74.9345 12.2542 75.7814 13.1496C76.6285 14.0447 77.0508 15.1672 77.0508 16.5202C77.0508 17.873 76.6285 19.0084 75.7814 19.9239C74.9345 20.8193 73.8815 21.2667 72.6224 21.2667C71.3631 21.2667 70.3096 20.8193 69.4627 19.9239V19.9263ZM128.505 22.7752C126.79 21.0952 125.932 19.0113 125.932 16.5229C125.932 14.0342 126.79 11.9501 128.505 10.2698C130.219 8.58937 132.358 7.74841 134.92 7.74841C137.481 7.74841 139.62 8.58937 141.335 10.2698C143.051 11.9501 143.907 14.0342 143.907 16.5229C143.907 19.0113 143.051 21.0952 141.335 22.7752C139.62 24.4554 137.481 25.2971 134.92 25.2971C132.358 25.2971 130.221 24.4554 128.505 22.7752ZM130.489 16.5229C130.489 17.8754 130.911 19.0113 131.757 19.9263C132.605 20.8217 133.658 21.2691 134.917 21.2691C136.177 21.2691 137.23 20.8217 138.076 19.9263C138.924 19.0113 139.346 17.8754 139.346 16.5229C139.346 15.1696 138.924 14.0447 138.076 13.152C137.23 12.2573 136.177 11.8092 134.917 11.8092C133.658 11.8092 132.605 12.2671 131.757 13.1853C130.911 14.0806 130.489 15.1929 130.489 16.5253V16.5229ZM155.606 7.74841C157.472 7.74841 158.972 8.40306 160.098 9.71235C161.248 11.0219 161.823 12.6917 161.823 14.72V24.9646H157.427V15.5046C157.427 14.4125 157.081 13.5178 156.384 12.8192C155.689 12.1216 154.822 11.771 153.779 11.771C152.607 11.771 151.654 12.1216 150.916 12.8192C150.178 13.5178 149.809 14.4125 149.809 15.5046V24.9646H145.413V8.07537H149.809V12.3973C150.243 10.9578 150.971 9.82215 151.991 8.99382C153.034 8.165 154.237 7.75084 155.606 7.75084V7.74841ZM98.4544 20.4636L102.947 8.09092H107.409L98.162 31.5293H93.7002L96.0452 25.5706L89.1749 8.09092H93.929L98.4544 20.4636ZM119.909 8.07537V12.3076C118.993 9.54596 116.732 8.07537 113.722 8.07537C109.179 8.07537 106.493 12.0654 106.493 16.2593C106.493 20.4534 109.159 24.77 113.722 24.77C116.732 24.77 118.993 22.5889 119.909 19.8265V23.0672C119.909 24.443 119.464 25.576 118.573 26.4706C117.683 27.366 116.6 27.8134 115.317 27.8134C113.58 27.8134 112.29 26.9416 111.443 25.1946L107.503 27.2895C108.241 28.6651 109.294 29.765 110.662 30.5962C112.031 31.4243 113.582 31.839 115.317 31.839C117.879 31.839 120.018 30.9997 121.733 29.3171C123.447 27.6371 124.305 25.5527 124.305 23.0645V8.07537H119.909ZM118.64 19.4687C117.792 20.3201 116.729 20.7452 115.45 20.7452C114.17 20.7452 113.171 20.3201 112.323 19.4687C111.476 18.5966 111.054 17.5281 111.054 16.2618C111.054 14.9957 111.476 13.9368 112.323 13.0852C113.171 12.234 114.211 11.8092 115.45 11.8092C116.688 11.8092 117.795 12.234 118.64 13.0852C119.487 13.914 119.909 14.9729 119.909 16.2618C119.909 17.5509 119.487 18.6195 118.64 19.4687Z" fill="#5EA395"/>
</svg>
