<svg width="18" height="16" viewBox="0 0 18 16" fill="none" xmlns="http://www.w3.org/2000/svg">
<path d="M15.4126 3.90202C15.3003 4.00502 15.1539 4.06304 15.0016 4.06502H0.579566C0.067566 4.06502 -0.190434 3.48002 0.163566 3.13702L2.53257 0.853021C2.64264 0.746396 2.78933 0.685928 2.94257 0.684021H17.4196C17.9366 0.684021 18.1896 1.27402 17.8296 1.61902L15.4126 3.90202Z" fill="url(#paint0_linear_2078_336)"/>
<path d="M15.4126 15.158C15.2995 15.2592 15.1533 15.3154 15.0016 15.316H0.579566C0.067566 15.316 -0.190434 14.736 0.163566 14.393L2.53257 12.103C2.64357 11.9986 2.79016 11.9403 2.94257 11.94H17.4196C17.9366 11.94 18.1896 12.526 17.8296 12.868L15.4126 15.158Z" fill="url(#paint1_linear_2078_336)"/>
<path d="M15.4126 6.473C15.2995 6.37182 15.1533 6.31561 15.0016 6.315H0.579566C0.067566 6.315 -0.190434 6.895 0.163566 7.238L2.53257 9.528C2.64357 9.631 2.78957 9.688 2.94257 9.691H17.4196C17.9366 9.691 18.1896 9.105 17.8296 8.763L15.4126 6.473Z" fill="url(#paint2_linear_2078_336)"/>
<defs>
<linearGradient id="paint0_linear_2078_336" x1="0.000566125" y1="51.041" x2="18.4586" y2="50.871" gradientUnits="userSpaceOnUse">
<stop stop-color="#599DB0"/>
<stop offset="1" stop-color="#47F8C3"/>
</linearGradient>
<linearGradient id="paint1_linear_2078_336" x1="0.000566112" y1="5.168" x2="18.3406" y2="5.027" gradientUnits="userSpaceOnUse">
<stop stop-color="#C44FE2"/>
<stop offset="1" stop-color="#73B0D0"/>
</linearGradient>
<linearGradient id="paint2_linear_2078_336" x1="1.03557" y1="8.003" x2="17.3026" y2="8.003" gradientUnits="userSpaceOnUse">
<stop stop-color="#778CBF"/>
<stop offset="1" stop-color="#5DCDC9"/>
</linearGradient>
</defs>
</svg>
