<svg width="32" height="33" viewBox="0 0 32 33" fill="none" xmlns="http://www.w3.org/2000/svg">
<path d="M9.97748 1.02033C12.0249 0.856448 14.1161 0.739014 15.8947 0.739014C17.5907 0.739014 19.5711 0.845731 21.5275 0.998004C26.7383 1.40303 30.8452 5.51932 31.248 10.7315C31.4025 12.7316 31.5115 14.7616 31.5115 16.4965C31.5115 18.2255 31.4034 20.2475 31.2498 22.2409C30.8475 27.4624 26.7276 31.5818 21.5065 31.9878C19.5042 32.1432 17.476 32.2534 15.7545 32.2534C14.0014 32.2534 11.9575 32.1396 9.95602 31.9792C4.8841 31.5733 0.846396 27.6414 0.351171 22.5816C0.145758 20.4792 -0.00292969 18.3237 -0.00292969 16.4965C-0.00292969 14.6745 0.144863 12.5271 0.349383 10.4305C0.844161 5.36261 4.89484 1.42714 9.97748 1.02033Z" fill="white"/>
<path d="M20.3682 13.6555C20.2896 13.7336 20.1842 13.7787 20.0748 13.7787H9.68581C9.31964 13.7787 9.1339 13.3313 9.38888 13.0651L11.0929 11.3003C11.171 11.22 11.2787 11.1731 11.3903 11.1731H21.8168C22.1861 11.1731 22.3719 11.6245 22.1102 11.8907L20.3682 13.6555ZM20.3682 21.5415C20.2896 21.6174 20.1842 21.6621 20.0748 21.6621H9.68581C9.31964 21.6621 9.1339 21.2263 9.38888 20.9668L11.0929 19.2445C11.171 19.1664 11.2787 19.1217 11.3903 19.1217H21.8168C22.1861 19.1217 22.3719 19.5624 22.1102 19.8219L20.3682 21.5415ZM20.0748 15.1474C20.1842 15.1474 20.2896 15.1898 20.3682 15.2684L22.1102 16.9903C22.3719 17.2475 22.1861 17.6905 21.8168 17.6905H11.3903C11.2787 17.6905 11.171 17.6454 11.0929 17.5672L9.38888 15.8449C9.13167 15.5855 9.31696 15.1496 9.68581 15.1496L20.0748 15.1474Z" fill="#00FFAD"/>
<path d="M15.7545 5.31348C21.9294 5.31348 26.9371 10.3211 26.9371 16.4965C26.9371 22.6714 21.9294 27.679 15.7545 27.679C9.57918 27.679 4.57153 22.6714 4.57153 16.4965C4.57153 10.3211 9.57918 5.31348 15.7545 5.31348Z" fill="black"/>
<path fill-rule="evenodd" clip-rule="evenodd" d="M9.74171 15.4295H20.0905C20.22 15.4295 20.3428 15.4809 20.4322 15.5724L22.0696 17.2207C22.3715 17.5252 22.1567 18.0436 21.7276 18.0436H11.3792C11.2493 18.0436 11.126 17.9923 11.0367 17.9008L9.39964 16.2526C9.09554 15.9485 9.31213 15.4295 9.74171 15.4295ZM9.39964 13.2446L11.0367 11.5959C11.1287 11.5044 11.2515 11.4526 11.3792 11.4526H21.7254C22.1545 11.4526 22.3715 11.9719 22.0674 12.2756L20.4322 13.9242C20.3411 14.0158 20.2178 14.0676 20.0905 14.0676H9.74171C9.31213 14.0676 9.09554 13.5482 9.39964 13.2446ZM22.0674 20.2291L20.4304 21.8773C20.3384 21.9693 20.2156 22.0207 20.0879 22.0207H9.74171C9.31213 22.0207 9.09554 21.5017 9.39964 21.1976L11.0367 19.5494C11.1287 19.4575 11.2515 19.4061 11.3792 19.4061H21.7254C22.1545 19.4061 22.3715 19.925 22.0674 20.2291Z" fill="url(#paint0_linear_1_105)"/>
<defs>
<linearGradient id="paint0_linear_1_105" x1="9.80288" y1="21.579" x2="20.7139" y2="10.3969" gradientUnits="userSpaceOnUse">
<stop stop-color="#CB4EE8"/>
<stop offset="1" stop-color="#10F4B1"/>
</linearGradient>
</defs>
</svg>
