<svg width="155" height="30" viewBox="0 0 155 30" fill="none" xmlns="http://www.w3.org/2000/svg">
<path d="M52.3886 16.6021H58.217C59.0366 16.6021 59.7008 17.2767 59.7008 18.1006C59.7008 18.9316 59.0366 19.5994 58.217 19.5994H51.1875C51.0744 19.5994 50.9686 19.6419 50.8908 19.7131L48.7713 21.5526C48.4463 21.8366 48.6442 22.3693 49.068 22.3693H57.8637C57.8637 22.3693 57.871 22.3693 57.871 22.3623C57.871 22.355 57.878 22.355 57.878 22.355C57.9911 22.3623 58.0969 22.3693 58.21 22.3693C60.5414 22.3693 62.4347 20.4588 62.4347 18.1006C62.4347 15.8634 60.7323 14.0238 58.5562 13.8462C58.5562 13.8462 58.5492 13.8463 58.5492 13.839C58.5492 13.8319 58.5492 13.8319 58.542 13.8319H52.2685C51.4489 13.8319 50.785 13.1574 50.785 12.3334C50.785 11.5024 51.4489 10.8346 52.2685 10.8346H59.284C59.3968 10.8346 59.5099 10.7921 59.5947 10.7139L61.5659 8.87432C61.8768 8.58331 61.6719 8.0647 61.2549 8.0647H52.3886C52.3533 8.0647 52.3108 8.0647 52.2755 8.0647C49.9441 8.0647 48.0508 9.9752 48.0508 12.3334C48.0508 14.6913 49.9441 16.6021 52.2755 16.6021C52.3108 16.6021 52.3463 16.6021 52.3886 16.6021Z" fill="#5EA395"/>
<path d="M86.3136 8.0577C86.0594 8.0577 85.8545 8.26369 85.8545 8.52652V21.9078C85.8545 22.1634 86.0594 22.3764 86.3136 22.3764H96.9816C97.1087 22.3764 97.2288 22.3196 97.3206 22.2273L98.6558 20.7856C98.9315 20.4873 98.7266 19.9971 98.3168 19.9971H89.0052C88.7511 19.9971 88.5462 19.7911 88.5462 19.5283V8.51924C88.5462 8.26369 88.3413 8.05066 88.0868 8.05066H86.3136V8.0577Z" fill="#5EA395"/>
<path fill-rule="evenodd" clip-rule="evenodd" d="M69.2313 8.05762C69.2313 8.06466 69.2313 8.06466 69.2313 8.05762C67.8676 8.1215 66.7725 9.22238 66.709 10.5931V19.5921C66.709 19.6278 66.709 19.6703 66.709 19.7057C66.709 21.1333 67.8253 22.2983 69.2313 22.3552H78.9099C80.3089 22.2911 81.4322 21.1263 81.4322 19.7057C81.4322 19.6703 81.4322 19.6278 81.4322 19.5921V10.6004C81.3756 9.22943 80.2806 8.1215 78.9171 8.06466H69.2313V8.05762ZM71.0398 10.6004C71.0328 10.6004 71.0328 10.6004 71.0398 10.6004C70.1849 10.6359 69.4997 11.3318 69.4642 12.1983V17.8591C69.4642 17.8805 69.4642 17.9089 69.4642 17.9301C69.4642 18.8252 70.1637 19.5639 71.0398 19.5993H77.1084C77.9845 19.5639 78.684 18.8252 78.684 17.9301C78.684 17.9089 78.684 17.8805 78.684 17.8591V12.1983C78.6487 11.3318 77.9632 10.6429 77.1084 10.6004H71.0398Z" fill="#5EA395"/>
<path fill-rule="evenodd" clip-rule="evenodd" d="M114.163 21.9078C114.163 22.1634 114.368 22.3764 114.622 22.3764H116.431C116.685 22.3764 116.89 22.1704 116.89 21.9076V10.8347C116.89 10.7992 116.89 10.7567 116.89 10.7212C116.89 9.29362 115.78 8.12862 114.396 8.07178H105.106C105.07 8.07178 105.028 8.07178 104.993 8.07178C103.551 8.07178 102.386 9.25792 102.386 10.7283C102.386 10.7637 102.386 10.8062 102.386 10.8419V21.9149C102.386 22.1704 102.591 22.3834 102.845 22.3834L104.654 22.3837C104.908 22.3837 105.113 22.1777 105.113 21.9149V17.3051C105.113 17.0496 105.318 16.8365 105.572 16.8365H113.725C113.979 16.8365 114.184 17.0425 114.184 17.3051V21.9078H114.163ZM105.099 14.2867V11.9853C105.099 11.0904 105.812 10.3661 106.688 10.3661H112.58C113.456 10.3661 114.17 11.0904 114.17 11.9853V14.2867C114.17 14.5422 113.965 14.7555 113.711 14.7555L105.558 14.7553C105.304 14.7553 105.099 14.5495 105.099 14.2867Z" fill="#5EA395"/>
<path fill-rule="evenodd" clip-rule="evenodd" d="M152.349 22.3764C152.095 22.3764 151.89 22.1704 151.89 21.9075V17.298C151.89 17.0422 151.685 16.8292 151.43 16.8292H143.186C142.931 16.8292 142.727 17.0352 142.727 17.298V21.9078C142.727 22.1633 142.522 22.3764 142.267 22.3764H140.445C140.19 22.3764 139.985 22.1704 139.985 21.9075V10.8346C139.985 10.7992 139.985 10.7566 139.985 10.7212C139.985 9.25788 141.165 8.0647 142.621 8.0647C142.656 8.0647 142.698 8.0647 142.734 8.0647H152.123C153.522 8.12858 154.645 9.29359 154.645 10.7139C154.645 10.7496 154.645 10.7921 154.645 10.8276V21.9005C154.645 22.1563 154.44 22.3693 154.186 22.3693H152.349V22.3764ZM142.727 11.9853V14.2866C142.727 14.5422 142.931 14.7555 143.186 14.7555L151.43 14.7552C151.685 14.7552 151.89 14.5495 151.89 14.2866V11.9853C151.89 11.0904 151.169 10.366 150.286 10.366H144.33C143.44 10.366 142.727 11.0904 142.727 11.9853Z" fill="#5EA395"/>
<path d="M123.701 8.05762C123.835 8.05762 123.963 8.11446 124.048 8.22085L132.158 17.9444C132.434 18.2711 132.963 18.0722 132.963 17.639V8.52644C132.963 8.27065 133.168 8.05762 133.422 8.05762H135.231C135.485 8.05762 135.69 8.26361 135.69 8.52644V21.9077C135.69 22.1633 135.485 22.3763 135.231 22.3763H132.984C132.977 22.3763 132.97 22.3693 132.97 22.3622C132.97 22.3552 132.97 22.3552 132.963 22.3479L124.712 12.6955C124.436 12.3688 123.906 12.5748 123.906 13.0009V21.9148C123.906 22.1703 123.701 22.3836 123.447 22.3836H121.624C121.37 22.3836 121.165 22.1776 121.165 21.9148V8.52644C121.165 8.27065 121.37 8.05762 121.624 8.05762H123.701Z" fill="#5EA395"/>
<path d="M5.99343 22.8665C6.21959 22.6391 6.52331 22.5114 6.84128 22.5114H36.2664C36.8033 22.5114 37.0717 23.1648 36.6902 23.5413L30.8758 29.3867C30.6499 29.6139 30.3459 29.7416 30.028 29.7416H0.603108C0.0662261 29.7416 -0.202457 29.0882 0.179063 28.7119L5.99343 22.8665Z" fill="#5EA395"/>
<path d="M5.99343 1.04752C6.21959 0.820155 6.52331 0.692383 6.84128 0.692383H36.2664C36.8033 0.692383 37.0717 1.34582 36.6902 1.72209L30.8758 7.56048C30.6499 7.78785 30.3459 7.91562 30.028 7.91562H0.603108C0.0662261 7.91562 -0.202457 7.26218 0.179063 6.88567L5.99343 1.04752Z" fill="#5EA395"/>
<path d="M30.8758 11.886C30.6499 11.6587 30.3459 11.5309 30.028 11.5309H0.603108C0.0662261 11.5309 -0.202457 12.1843 0.179063 12.5608L5.99343 18.399C6.21959 18.6263 6.52331 18.7541 6.84128 18.7541H36.2664C36.8033 18.7541 37.0717 18.1007 36.6902 17.7244L30.8758 11.886Z" fill="#5EA395"/>
</svg>
