<svg width="48" height="48" viewBox="0 0 48 48" fill="none" xmlns="http://www.w3.org/2000/svg">
<path fill-rule="evenodd" clip-rule="evenodd" d="M47.3332 24.0001C47.3332 36.8868 36.8866 47.3334 23.9997 47.3334C11.1133 47.3334 0.666504 36.8868 0.666504 24.0001C0.666504 11.1134 11.1133 0.666748 23.9997 0.666748C36.8866 0.666748 47.3332 11.1134 47.3332 24.0001ZM15.8188 21.7255C13.4699 22.7429 11.0565 23.7878 8.85003 24.9935C7.6977 25.8302 9.22917 26.4227 10.666 26.9784C10.8948 27.0666 11.1202 27.1534 11.3331 27.2411C11.5094 27.2951 11.6896 27.3519 11.8716 27.4092C13.4691 27.9143 15.2512 28.4775 16.8027 27.6303C19.3508 26.1782 21.756 24.499 24.1583 22.8216C24.9459 22.2715 25.7324 21.7222 26.5249 21.1806C26.5614 21.1572 26.6038 21.1302 26.6498 21.1007C27.3243 20.6673 28.8411 19.6916 28.28 21.0356C26.9526 22.4756 25.5317 23.75 24.1023 25.0318C23.1391 25.895 22.1729 26.7617 21.2293 27.6845C20.4073 28.3471 19.5536 29.6794 20.4738 30.6073C22.5937 32.0794 24.7467 33.5162 26.8979 34.9518C27.5983 35.4186 28.2983 35.8859 28.9969 36.3539C30.1811 37.2919 32.0318 36.5334 32.292 35.0677C32.4079 34.393 32.5243 33.719 32.6403 33.0451C33.2829 29.3185 33.9255 25.5912 34.493 21.8533C34.5704 21.267 34.6581 20.6804 34.7449 20.0941C34.9573 18.6722 35.1696 17.2481 35.2356 15.8187C35.065 14.3919 33.3212 14.7058 32.3511 15.0271C27.3642 16.9091 22.4266 18.9318 17.5088 20.9896C16.9521 21.2348 16.3871 21.4793 15.8188 21.7255Z" fill="#262626"/>
</svg>
