<svg width="33" height="32" viewBox="0 0 33 32" fill="none" xmlns="http://www.w3.org/2000/svg">
<path d="M16.2233 31.8656C7.42422 31.8656 0.291016 24.733 0.291016 15.9334C0.291016 7.13376 7.42368 0.00109863 16.2233 0.00109863C25.0223 0.00109863 32.1555 7.13376 32.1555 15.9334C32.1555 24.733 25.0229 31.8656 16.2233 31.8656ZM12.668 28.4286C11.0961 25.0953 10.3531 21.0821 10.1544 17.4021H3.18804C3.49745 19.8536 4.70161 22.4845 6.29889 24.369C7.89671 26.2536 10.3007 27.7191 12.668 28.4286ZM13.0854 17.401C13.3252 21.2862 14.4365 25.0623 16.2233 28.2828C18.0592 24.9759 19.1311 21.1755 19.3611 17.401H13.0838H13.0854ZM29.2186 17.401H22.2544C22.0551 21.0816 21.3558 25.0937 19.7845 28.4275C22.1512 27.718 24.559 26.2536 26.1574 24.3679C27.7557 22.4818 28.9091 19.8526 29.2186 17.401ZM3.1875 14.4538H10.1544C10.3531 10.7733 11.0967 6.77953 12.6691 3.44458C10.3018 4.1525 7.89563 5.60722 6.29889 7.49285C4.70215 9.37902 3.49691 12.0017 3.18642 14.4538H3.1875ZM13.0854 14.4538H19.3595C19.1289 10.6793 18.0592 6.88915 16.2244 3.58228C14.3884 6.88915 13.3144 10.6788 13.0838 14.4538H13.0854ZM19.785 3.44566C21.3569 6.77953 22.054 10.7733 22.2527 14.4554L29.2175 14.4549C28.9081 12.0033 27.7552 9.36984 26.1574 7.48421C24.5601 5.59912 22.1523 4.1552 19.7845 3.44566H19.785Z" fill="white"/>
</svg>
