<svg width="82" height="32" viewBox="0 0 82 32" fill="none" xmlns="http://www.w3.org/2000/svg">
<g clip-path="url(#clip0_2136_5034)">
<path d="M18.7449 25.1881L14.7998 32V18.3763L18.7449 25.1881Z" fill="#838EFC"/>
<path d="M28.6109 24.052L24.6645 30.8652L14.8 13.8342L14.7705 13.8854V0.261768L14.8 0.210571L28.6109 24.052Z" fill="#838EFC"/>
<path d="M14.7998 18.3762V31.9999L10.8535 25.1881L14.7998 18.3762Z" fill="white"/>
<path d="M14.77 0.261719V13.8854L4.93365 30.865L0.987305 24.052L14.77 0.261719Z" fill="white"/>
<path d="M36.8525 23.7821L43.4383 7.79907H45.0097L51.5493 23.7821H49.1923L43.785 10.2633H44.6169L39.1864 23.7821H36.8525ZM39.9953 20.1663V18.2778H48.4297V20.1663H39.9953Z" fill="white"/>
<path d="M56.8871 24.0124C55.7779 24.0124 54.7881 23.7629 53.9177 23.2639C53.0473 22.7649 52.3579 22.0855 51.8495 21.2257C51.3412 20.366 51.0869 19.391 51.0869 18.3009C51.0869 17.2108 51.3373 16.2588 51.838 15.399C52.3386 14.5393 53.0165 13.8599 53.8715 13.3609C54.7264 12.8619 55.6855 12.6124 56.7484 12.6124C57.7498 12.6124 58.6433 12.8428 59.429 13.3033C60.2146 13.7639 60.827 14.4011 61.2661 15.2148C61.7051 16.0286 61.9246 16.9574 61.9246 18.0015C61.9246 18.155 61.9169 18.3201 61.9015 18.4966C61.8861 18.6732 61.8553 18.8689 61.8091 19.0839H52.5427V17.3566H60.6999L59.9373 18.0245C59.9373 17.2876 59.8064 16.6619 59.5445 16.1476C59.2826 15.6332 58.9129 15.234 58.4353 14.95C57.9578 14.666 57.38 14.5239 56.7022 14.5239C56.0243 14.5239 55.3696 14.6774 54.8304 14.9845C54.2912 15.2916 53.8753 15.7215 53.5826 16.2742C53.2899 16.827 53.1436 17.4795 53.1436 18.2318C53.1436 18.9841 53.2976 19.6712 53.6057 20.247C53.9138 20.8227 54.3529 21.2679 54.9229 21.5827C55.4929 21.8974 56.1476 22.0548 56.8871 22.0548C57.5033 22.0548 58.0694 21.9473 58.5855 21.7324C59.1016 21.5174 59.5445 21.195 59.9142 20.7652L61.2545 22.1239C60.7153 22.738 60.0683 23.2063 59.3134 23.5287C58.5585 23.8512 57.7498 24.0124 56.8871 24.0124Z" fill="white"/>
<path d="M63.0322 23.7821V12.8427H65.112V23.7821H63.0322ZM65.112 17.5639L64.3263 17.1954C64.3263 15.7982 64.6497 14.6852 65.2968 13.8561C65.9438 13.027 66.8759 12.6124 68.0929 12.6124C68.6474 12.6124 69.1482 12.7084 69.5949 12.9003C70.0416 13.0922 70.4576 13.4108 70.8427 13.8561L69.4793 15.2609C69.2483 15.0153 68.994 14.8387 68.7167 14.7312C68.4395 14.6237 68.116 14.57 67.7463 14.57C66.976 14.57 66.3444 14.8156 65.8514 15.307C65.3584 15.7982 65.112 16.5506 65.112 17.5639Z" fill="white"/>
<path d="M75.788 24.0124C74.7248 24.0124 73.7619 23.759 72.8992 23.2524C72.0366 22.7457 71.351 22.0586 70.8426 21.1912C70.3342 20.3237 70.0801 19.3526 70.0801 18.2778C70.0801 17.2031 70.3342 16.2627 70.8426 15.4106C71.351 14.5585 72.0366 13.8791 72.8992 13.3724C73.7619 12.8657 74.7248 12.6124 75.788 12.6124C76.8505 12.6124 77.8408 12.8619 78.7106 13.3609C79.5812 13.8599 80.2708 14.5393 80.7794 15.399C81.2873 16.2588 81.5419 17.2185 81.5419 18.2778C81.5419 19.3372 81.2873 20.3237 80.7794 21.1912C80.2708 22.0586 79.5812 22.7457 78.7106 23.2524C77.8408 23.759 76.8658 24.0124 75.788 24.0124ZM75.788 22.0088C76.4966 22.0088 77.1205 21.8476 77.6598 21.5252C78.199 21.2027 78.6223 20.7613 78.9302 20.2009C79.2389 19.6405 79.3929 18.9995 79.3929 18.2778C79.3929 17.5562 79.2345 16.9421 78.9186 16.3894C78.6033 15.8366 78.1793 15.4029 77.6481 15.0881C77.1161 14.7734 76.4966 14.6161 75.788 14.6161C75.0795 14.6161 74.5015 14.7734 73.9622 15.0881C73.423 15.4029 72.9994 15.8366 72.6913 16.3894C72.3832 16.9421 72.2291 17.5716 72.2291 18.2778C72.2291 18.9841 72.3832 19.6405 72.6913 20.2009C72.9994 20.7613 73.423 21.2027 73.9622 21.5252C74.5015 21.8476 75.1101 22.0088 75.788 22.0088Z" fill="white"/>
</g>
<defs>
<clipPath id="clip0_2136_5034">
<rect width="81" height="32" fill="white" transform="translate(0.831055)"/>
</clipPath>
</defs>
</svg>
