<svg width="173" height="32" viewBox="0 0 173 32" fill="none" xmlns="http://www.w3.org/2000/svg">
<path d="M16.2253 16L21.5165 10.7025L26.8078 16L21.5165 21.2975L16.2253 16Z" fill="#5454AF"/>
<path d="M5.53538 16L10.8266 10.7025L16.1178 16L10.8266 21.2975L5.53538 16Z" fill="#171053"/>
<path d="M5.53538 26.7025L10.8266 21.405L16.1178 26.7025L10.8266 32L5.53538 26.7025Z" fill="#9D9FE8"/>
<path d="M0.19043 21.3513L5.48166 16.0538L10.7729 21.3513L5.48166 26.6487L0.19043 21.3513Z" fill="#5352AE"/>
<path d="M5.53538 5.29748L10.8266 0L16.1178 5.29748L10.8266 10.595L5.53538 5.29748Z" fill="#2C2984"/>
<path fill-rule="evenodd" clip-rule="evenodd" d="M5.57318 5.25964L10.8644 10.5571L10.8266 10.595L5.53538 5.29748L5.57318 5.25964Z" fill="white"/>
<path d="M0.19043 10.6487L5.48166 5.35126L10.7729 10.6487L5.48166 15.9462L0.19043 10.6487Z" fill="#2C2984"/>
<path fill-rule="evenodd" clip-rule="evenodd" d="M37.2243 7.59904C37.1503 7.67816 37.0898 8.55365 37.0898 9.54458V11.3459H44.2449H51.3999V9.53161C51.3999 8.07656 51.3368 7.69134 51.0811 7.58607C50.6449 7.40664 37.3922 7.41897 37.2243 7.59904ZM53.5666 7.5785C53.4833 7.66908 53.4154 8.54025 53.4154 9.51432V11.2856L54.4736 11.422C55.0554 11.497 56.7364 11.5593 58.2087 11.5602C61.0598 11.5623 61.9233 11.7755 62.8548 12.7074C64.5948 14.4482 64.5962 17.7866 62.8575 19.4811C61.8846 20.4295 61.1926 20.6413 59.0689 20.6413H57.0433V17.2057C57.0433 13.2954 57.1475 13.5077 55.2294 13.5077C53.2669 13.5077 53.4154 13.0446 53.4154 19.1662V24.562L57.8999 24.4933L62.3844 24.4243L63.6012 23.7419C65.1354 22.8815 66.3721 21.4509 67.1827 19.5994C67.7336 18.3413 67.8156 17.9189 67.8206 16.3179C67.8237 15.3073 67.7154 14.0913 67.58 13.6157C66.8992 11.2262 64.9709 9.01669 62.7561 8.08823C61.7086 7.64897 61.1431 7.58434 57.648 7.50414C55.4864 7.45463 53.6498 7.48814 53.5666 7.5785ZM75.8466 7.67318C74.2813 7.91854 72.3265 8.98988 71.2542 10.1899C67.4431 14.4562 68.5986 21.225 73.5705 23.757L74.8805 24.4243L79.4658 24.4896L84.0511 24.5551V19.1625C84.0511 14.4448 84.0112 13.7537 83.7322 13.6389C83.3166 13.4679 75.9173 13.4679 75.5017 13.6389C75.0696 13.8168 75.0873 13.9329 75.8268 15.7777L76.471 17.384L78.3966 17.4454L80.3224 17.5068L80.3817 19.0741L80.4409 20.6413H78.1459C76.1428 20.6413 75.74 20.5784 74.9785 20.1465C73.1851 19.1294 72.2519 17.0226 72.7324 15.0749C73.0285 13.8736 73.8373 12.7117 74.8011 12.1025C75.4088 11.7184 75.9572 11.6581 79.7178 11.5621L83.9503 11.454L84.0094 9.63516C84.0519 8.32581 83.9955 7.76635 83.8078 7.63881C83.4869 7.42048 77.2889 7.44728 75.8466 7.67318ZM86.201 7.59904C86.1271 7.67816 86.0666 8.55365 86.0666 9.54458V11.3459H93.2216H100.377V9.53161C100.377 8.07656 100.314 7.69134 100.058 7.58607C99.6217 7.40664 86.3689 7.41897 86.201 7.59904ZM101.641 7.62995C101.464 7.75057 102.18 9.32063 104.16 13.157C105.682 16.1043 107.006 18.5319 107.103 18.5518C107.333 18.5985 109.232 15.028 109.239 14.5353C109.245 14.1123 106.084 7.86839 105.738 7.62022C105.442 7.40794 101.955 7.41616 101.641 7.62995ZM115.143 7.72506C115.035 7.87379 114.626 8.62758 114.234 9.4004C113.843 10.1732 112.329 13.1153 110.87 15.9385L108.218 21.0713L109.084 22.7989C109.878 24.3813 110.003 24.5266 110.572 24.5294C111.171 24.5322 111.263 24.3934 113.126 20.6954C114.189 18.5851 116.065 14.8654 117.295 12.4296C118.524 9.99379 119.486 7.87811 119.433 7.72788C119.296 7.34676 115.422 7.34417 115.143 7.72506ZM122.759 9.10683C122.272 10.0753 121.958 10.9557 122.016 11.1925C122.071 11.4177 123.204 13.7089 124.534 16.2837C125.864 18.8588 127.347 21.7438 127.83 22.695L128.707 24.4243L130.992 24.4857C133.062 24.5413 133.265 24.5127 133.148 24.1844C133.077 23.9848 131.532 20.9416 129.715 17.4217C127.898 13.9017 126.016 10.2435 125.532 9.29231C124.818 7.88871 124.554 7.55062 124.127 7.49701C123.659 7.43821 123.511 7.61266 122.759 9.10683ZM134.842 9.67191V11.8892L140.738 18.2107C145.6 23.4228 146.732 24.5324 147.188 24.5324H147.741V15.9852V7.43799L145.977 7.50046L144.214 7.56294L144.113 11.8349L144.012 16.1069L139.983 11.7809C136.691 8.24625 135.852 7.45485 135.398 7.45485H134.842V9.67191ZM156.633 9.08089C156.176 9.98817 155.803 10.8548 155.803 11.0063C155.803 11.226 159.577 18.68 162.187 23.6137L162.673 24.5324H164.881C166.096 24.5324 167.09 24.4797 167.09 24.4152C167.09 24.2801 165.727 21.5992 161.49 13.3996C157.884 6.42047 157.944 6.47386 156.633 9.08089ZM37.2243 13.6518C37.1503 13.731 37.0898 16.2115 37.0898 19.1642V24.5324H44.2449H51.3999V22.7047V20.8772L50.7449 20.7483C50.3845 20.6776 47.9584 20.6489 45.3534 20.6846L40.617 20.7494L40.7178 19.1281L40.8185 17.5068L45.4038 17.4487L49.9891 17.3905V15.5803C49.9891 14.1289 49.9258 13.7441 49.6702 13.6389C49.2343 13.4594 37.3922 13.4718 37.2243 13.6518ZM86.2038 13.6488C86.1283 13.7297 86.0666 16.2115 86.0666 19.1642V24.5324H93.2216H100.377V22.7202C100.377 21.0235 100.348 20.8996 99.9232 20.7775C99.6739 20.706 97.2663 20.6459 94.5732 20.6443L89.6768 20.6413L89.736 19.0741L89.7953 17.5068L94.3884 17.4487L98.9813 17.3905L98.9233 15.5031L98.865 13.6157L92.6031 13.5587C89.159 13.5273 86.2792 13.5678 86.2038 13.6488ZM120.386 13.7707C120.273 13.9234 119.566 15.2641 118.816 16.7502C118.066 18.2364 116.876 20.546 116.171 21.8828C115.465 23.2196 114.888 24.3627 114.888 24.4228C114.888 24.4831 115.909 24.5296 117.156 24.5259L119.423 24.5197L121.198 21.0546L122.973 17.5898L121.977 15.611C120.941 13.5515 120.73 13.3079 120.386 13.7707ZM154.245 13.7707C154.043 14.0405 151.402 19.1536 149.606 22.749L148.716 24.5324H151.011H153.307L154.185 22.749C154.667 21.768 155.461 20.2055 155.948 19.2768L156.833 17.5879L155.837 15.6101C154.801 13.5509 154.591 13.3083 154.245 13.7707ZM134.842 19.8847V24.5324H136.656H138.47V21.5551V18.5775L136.903 16.9074C136.042 15.9887 135.225 15.237 135.089 15.237C134.901 15.237 134.842 16.3553 134.842 19.8847Z" fill="white"/>
</svg>
