<svg width="116" height="24" viewBox="0 0 116 24" fill="none" xmlns="http://www.w3.org/2000/svg">
<g clip-path="url(#clip0_2136_5071)">
<mask id="mask0_2136_5071" style="mask-type:luminance" maskUnits="userSpaceOnUse" x="0" y="0" width="116" height="24">
<path d="M0.80957 0H115.81V24H0.80957V0Z" fill="white"/>
</mask>
<g mask="url(#mask0_2136_5071)">
<path d="M38.0989 20.5457C36.3396 20.5457 34.8635 20.1086 33.6663 19.2257C32.7451 18.5492 32.0271 17.6392 31.5122 16.4957C31.2598 15.9257 31.5293 15.2614 32.1129 15.0429L33.9194 14.3743C34.4172 14.19 35.0179 14.43 35.2462 14.9014C35.5031 15.4283 35.8049 15.844 36.1516 16.1486C36.6746 16.608 37.3325 16.838 38.1255 16.8386C39.0135 16.8392 39.7344 16.5463 40.2882 15.96C40.8426 15.3732 41.1201 14.606 41.1207 13.6586V4.75716C41.1207 4.16573 41.597 3.69002 42.1891 3.69002H44.1407C44.7329 3.69002 45.2092 4.16573 45.2092 4.75716V13.7829C45.2103 15.128 44.9128 16.308 44.3166 17.3229C43.7264 18.3302 42.8658 19.1527 41.8321 19.6972C40.7679 20.2672 39.5287 20.55 38.0989 20.55V20.5457ZM47.7246 19.2429V4.75716C47.7246 4.16573 48.2009 3.69002 48.793 3.69002H56.4946C57.5888 3.69002 58.5586 3.92573 59.4082 4.38859C60.2579 4.85659 60.9273 5.49373 61.4164 6.30002C61.9056 7.10573 62.1545 8.03145 62.1545 9.07716C62.1545 10.1229 61.9099 10.9714 61.4164 11.7729C60.9273 12.5743 60.2536 13.2 59.3954 13.6586C58.5406 14.118 57.5737 14.348 56.4946 14.3486H51.8131V19.2429C51.8131 19.8343 51.3376 20.31 50.7446 20.31H48.7922C48.2 20.31 47.7246 19.8343 47.7246 19.2429ZM51.8139 10.3586C51.8139 10.7014 52.0929 10.98 52.4361 10.98H56.0235C56.6242 10.9794 57.1077 10.8052 57.4738 10.4572C57.8377 10.1109 58.0194 9.65945 58.0188 9.10287C58.0188 8.54573 57.8386 8.07002 57.473 7.7143C57.1074 7.35773 56.6239 7.17916 56.0226 7.17859H52.4353C52.092 7.17859 51.8139 7.45716 51.8139 7.80002V10.3586ZM72.544 20.5714C71.2916 20.5709 70.1273 20.3537 69.0511 19.92C67.9974 19.5007 67.0363 18.879 66.2224 18.09C65.4193 17.313 64.7777 16.3852 64.3344 15.36C63.8835 14.3234 63.6575 13.2034 63.6564 12C63.6575 10.7966 63.8835 9.67659 64.3344 8.64002C64.7777 7.6148 65.4193 6.68707 66.2224 5.91002C67.0297 5.12659 67.9726 4.51659 69.0511 4.08002C70.1273 3.64287 71.2944 3.42859 72.544 3.42859C73.7924 3.42916 74.9581 3.6463 76.0412 4.08002C77.1174 4.51716 78.0623 5.12573 78.8681 5.91002C79.6712 6.68707 80.3128 7.6148 80.7562 8.64002C81.2076 9.67659 81.4336 10.7966 81.4342 12C81.4342 13.2034 81.2082 14.3234 80.7562 15.36C80.3128 16.3852 79.6712 17.313 78.8681 18.09C78.0608 18.8734 77.1185 19.4834 76.0412 19.92C74.9641 20.3572 73.7978 20.5714 72.544 20.5714ZM72.5431 16.8214C73.2085 16.8209 73.8264 16.698 74.3969 16.4529C74.9527 16.217 75.4571 15.8749 75.8816 15.4457C76.3096 15.0067 76.6452 14.4865 76.8685 13.9157C77.1075 13.3069 77.2281 12.6582 77.2238 12.0043C77.2238 11.3229 77.1036 10.6672 76.8676 10.08C76.6423 9.51286 76.3069 8.9958 75.8807 8.55859C75.4577 8.12772 74.953 7.78534 74.396 7.55145C73.81 7.30271 73.179 7.17724 72.5423 7.18287C71.878 7.18345 71.2601 7.3063 70.6885 7.55145C70.1327 7.78733 69.6283 8.12945 69.2038 8.55859C68.7827 8.98659 68.4538 9.49373 68.2169 10.08C67.9771 10.6841 67.8562 11.3288 67.8607 11.9786C67.8607 12.6557 67.9809 13.32 68.2177 13.9157C68.454 14.5112 68.783 15.0212 69.2047 15.4457C69.6241 15.8737 70.119 16.2094 70.6894 16.4529C71.2604 16.698 71.8783 16.8209 72.5431 16.8214ZM91.8966 20.5714C90.6442 20.5709 89.4799 20.3537 88.4037 19.92C87.35 19.5007 86.3889 18.879 85.575 18.09C84.7719 17.313 84.1303 16.3852 83.687 15.36C83.2361 14.3234 83.0101 13.2034 83.009 12C83.0073 10.1949 83.2373 9.67716 83.687 8.64002C84.1303 7.6148 84.7719 6.68707 85.575 5.91002C86.3903 5.12278 87.351 4.50126 88.4037 4.08002C89.4807 3.64287 90.6479 3.42859 91.8966 3.42859C93.1461 3.42916 94.3119 3.6463 95.3938 4.08002C96.4717 4.51659 97.4143 5.12659 98.2216 5.91002C99.0247 6.68707 99.6663 7.6148 100.11 8.64002C100.561 9.67659 100.787 10.7966 100.788 12C100.787 13.2034 100.561 14.3234 100.11 15.36C99.6663 16.3852 99.0247 17.313 98.2216 18.09C97.4143 18.8734 96.4717 19.4834 95.3938 19.92C94.3167 20.3572 93.1496 20.5714 91.8966 20.5714ZM91.8966 16.8214C92.562 16.8209 93.1799 16.698 93.7503 16.4529C94.3062 16.217 94.8106 15.8749 95.235 15.4457C95.6631 15.0067 95.9986 14.4865 96.222 13.9157C96.4613 13.307 96.5822 12.6583 96.5781 12.0043C96.5781 11.3229 96.458 10.6672 96.222 10.08C95.9966 9.51286 95.6612 8.9958 95.235 8.55859C94.812 8.12772 94.3073 7.78534 93.7503 7.55145C93.1643 7.30271 92.5333 7.17724 91.8966 7.18287C91.2318 7.18345 90.6139 7.3063 90.0429 7.55145C89.487 7.78733 88.9826 8.12945 88.5582 8.55859C88.1371 8.98659 87.8081 9.49373 87.5712 10.08C87.3315 10.6841 87.2105 11.3288 87.2151 11.9786C87.2151 12.6557 87.3352 13.32 87.5712 13.9157C87.8081 14.5112 88.1371 15.0212 88.5582 15.4457C88.9781 15.8737 89.473 16.2094 90.0429 16.4529C90.6139 16.698 91.2318 16.8209 91.8966 16.8214ZM102.95 19.2429V4.75716C102.95 4.16573 103.427 3.69002 104.019 3.69002H105.971C106.563 3.69002 107.04 4.16573 107.04 4.75716V16.08C107.04 16.4229 107.319 16.7014 107.662 16.7014H114.742C115.334 16.7014 115.811 17.1772 115.811 17.7686V19.2429C115.811 19.8343 115.334 20.31 114.742 20.31H104.019C103.427 20.31 102.95 19.8343 102.95 19.2429Z" fill="white"/>
<path d="M24.8394 4.71429V19.0311C24.8394 21.6351 22.7935 23.7454 20.2703 23.7454C19.0886 23.745 17.9553 23.2765 17.119 22.4426C16.0024 21.3446 14.7349 20.1197 13.1918 20.1197C11.6488 20.1197 10.4043 21.306 9.34274 22.4391C8.88735 22.9304 8.33542 23.3225 7.72143 23.5911C7.10744 23.8596 6.4446 23.9988 5.77431 24C3.03233 24 0.80957 21.7054 0.80957 18.876C0.80957 16.0466 3.03233 13.752 5.77431 13.752C7.59114 13.752 9.17882 14.7591 10.0439 16.2609C10.739 17.466 11.8032 18.636 13.1609 18.636C14.5186 18.636 15.7021 17.4617 15.7021 16.014V4.71514C15.7021 2.11114 17.7472 0 20.2703 0C22.7935 0 24.8394 2.11114 24.8394 4.71429Z" fill="#FFD600"/>
</g>
</g>
<defs>
<clipPath id="clip0_2136_5071">
<rect width="115" height="24" fill="white" transform="translate(0.80957)"/>
</clipPath>
</defs>
</svg>
