<svg width="148" height="24" viewBox="0 0 148 24" fill="none" xmlns="http://www.w3.org/2000/svg">
<g clip-path="url(#clip0_2136_5049)">
<path d="M46.589 2.33564H38.6608V4.3091H44.4816C45.654 4.3091 46.589 5.25415 46.589 6.40764V8.13096C46.589 9.29834 45.654 10.2295 44.4816 10.2295H36.6787V8.25604H44.6072V6.28257H38.7864C37.6139 6.28257 36.6787 5.33752 36.6787 4.18402V2.46072C36.6787 1.29332 37.6139 0.362183 38.7864 0.362183H46.589V2.33564Z" fill="white"/>
<path d="M56.1997 0.362183C57.3721 0.362183 58.3213 1.29332 58.3213 2.46072V8.13096C58.3213 9.29834 57.3721 10.2295 56.1997 10.2295H50.1C48.9275 10.2295 47.9922 9.29834 47.9922 8.13096V2.46072C47.9922 1.29332 48.9275 0.362183 50.1 0.362183H56.1997ZM56.3254 2.33564H49.9743V8.25604H56.3254V2.33564Z" fill="white"/>
<path d="M61.8513 8.18653H69.5842V10.3129H61.0839C60.3299 10.3129 59.7158 9.7014 59.7158 8.95091V0.278809H61.8513V8.18653Z" fill="white"/>
<path d="M79.5868 0.362183C80.5359 0.362183 81.3037 1.11265 81.3037 2.05769V10.2295H79.3078V6.99135H72.9567V10.2295H70.9746V2.05769C70.9746 1.11265 71.7282 0.362183 72.6774 0.362183H79.5868ZM79.3078 2.33564H72.9567V5.01789H79.3078V2.33564Z" fill="white"/>
<path d="M91.0304 0.362183H93.0264V8.9509C93.0264 9.65968 92.44 10.2295 91.7283 10.2295H90.1927C89.7043 10.2434 89.2716 9.97932 89.0483 9.5485L85.1959 2.33564H84.6794V10.2295H82.6973V1.65466C82.6973 0.931983 83.2695 0.362183 83.9811 0.362183H85.6005C86.0751 0.362183 86.5216 0.612339 86.7449 1.04317L90.5977 8.25604H91.0304V0.362183Z" fill="white"/>
<path d="M103.033 0.362183C103.982 0.362183 104.75 1.11265 104.75 2.05769V10.2295H102.754V6.99135H96.4026V10.2295H94.4209V2.05769C94.4209 1.11265 95.1745 0.362183 96.1236 0.362183H103.033ZM102.754 2.33564H96.4026V5.01789H102.754V2.33564Z" fill="white"/>
<path d="M46.3938 15.3193H38.6608V17.2927H46.3938V19.2662H38.6608V23.2131H36.6787V13.3458H46.3938V15.3193Z" fill="white"/>
<path d="M55.9956 13.3458C57.168 13.3458 58.1172 14.2769 58.1172 15.4443V21.1146C58.1172 22.282 57.168 23.2131 55.9956 23.2131H49.8955C48.723 23.2131 47.7881 22.282 47.7881 21.1146V15.4443C47.7881 14.2769 48.723 13.3458 49.8955 13.3458H55.9956ZM56.1209 15.3193H49.7698V21.2397H56.1209V15.3193Z" fill="white"/>
<path d="M67.8439 13.3458H69.8403V19.9055C69.826 21.74 68.3465 23.2131 66.5039 23.2131H62.8329C60.9906 23.2131 59.5107 21.74 59.5107 19.9055V13.3458H61.4929V19.5025C61.4929 20.4614 62.2745 21.2397 63.2379 21.2397H66.0993C67.0623 21.2397 67.8439 20.4614 67.8439 19.5025V13.3458Z" fill="white"/>
<path d="M79.5666 13.3458H81.5625V21.9345C81.5625 22.6433 80.9765 23.2131 80.2644 23.2131H78.7292C78.2404 23.227 77.8077 22.9629 77.5844 22.5321L73.732 15.3193H73.2155V23.2131H71.2334V14.6383C71.2334 13.9156 71.806 13.3458 72.5177 13.3458H74.137C74.6112 13.3458 75.0582 13.596 75.2814 14.0268L79.1339 21.2397H79.5666V13.3458Z" fill="white"/>
<path d="M89.9492 13.3458C91.7919 13.3458 93.2713 14.8328 93.2852 16.6534V19.9055C93.2713 21.74 91.7919 23.2131 89.9492 23.2131H82.9561V13.3458H89.9492ZM91.2892 17.0703C91.2892 16.0975 90.5076 15.3193 89.5446 15.3193H84.9382V21.2397H89.5446C90.5076 21.2397 91.2892 20.4614 91.2892 19.5025V17.0703Z" fill="white"/>
<path d="M103.292 13.3458C104.241 13.3458 105.009 14.0963 105.009 15.0413V23.2131H103.013V19.975H96.6618V23.2131H94.6797V15.0413C94.6797 14.0963 95.4333 13.3458 96.3824 13.3458H103.292ZM103.013 15.3193H96.6618V18.0015H103.013V15.3193Z" fill="white"/>
<path d="M106.402 13.3458H116.313V15.3193H112.349V23.2131H110.367V15.3193H106.402V13.3458Z" fill="white"/>
<path d="M119.698 23.2131H117.716V13.3458H119.698V23.2131Z" fill="white"/>
<path d="M129.304 13.3458C130.477 13.3458 131.426 14.2769 131.426 15.4443V21.1146C131.426 22.282 130.477 23.2131 129.304 23.2131H123.204C122.032 23.2131 121.097 22.282 121.097 21.1146V15.4443C121.097 14.2769 122.032 13.3458 123.204 13.3458H129.304ZM129.43 15.3193H123.079V21.2397H129.43V15.3193Z" fill="white"/>
<path d="M141.152 13.3458H143.148V21.9345C143.148 22.6433 142.562 23.2131 141.85 23.2131H140.315C139.826 23.227 139.394 22.9629 139.17 22.5321L135.318 15.3193H134.801V23.2131H132.819V14.6383C132.819 13.9156 133.392 13.3458 134.103 13.3458H135.723C136.197 13.3458 136.644 13.596 136.867 14.0268L140.719 21.2397H141.152V13.3458Z" fill="white"/>
<mask id="mask0_2136_5049" style="mask-type:luminance" maskUnits="userSpaceOnUse" x="0" y="0" width="27" height="24">
<path d="M26.4355 0.640015H0.80957V23.5003H26.4355V0.640015Z" fill="white"/>
</mask>
<g mask="url(#mask0_2136_5049)">
<path d="M26.3034 18.6637L22.0732 23.189C21.9812 23.2872 21.87 23.3656 21.7463 23.4192C21.6227 23.4727 21.4893 23.5004 21.3545 23.5003H1.30068C1.20499 23.5003 1.11139 23.4724 1.03137 23.4201C0.951357 23.3677 0.888412 23.2932 0.850272 23.2057C0.812131 23.1181 0.800457 23.0214 0.816684 22.9274C0.832911 22.8333 0.876332 22.746 0.941613 22.6762L5.17511 18.151C5.26683 18.053 5.37775 17.9747 5.501 17.9212C5.62426 17.8676 5.75719 17.8399 5.89162 17.8396H25.9444C26.0401 17.8397 26.1337 17.8675 26.2137 17.9199C26.2937 17.9722 26.3566 18.0467 26.3948 18.1342C26.4329 18.2218 26.4446 18.3185 26.4284 18.4126C26.4121 18.5066 26.3687 18.5939 26.3034 18.6637ZM22.0732 9.55117C21.9812 9.45285 21.87 9.37448 21.7463 9.32093C21.6227 9.26738 21.4893 9.23976 21.3545 9.23984H1.30068C1.20499 9.23984 1.11139 9.26773 1.03137 9.32006C0.951357 9.37239 0.888412 9.44691 0.850272 9.53445C0.812131 9.62195 0.800457 9.7187 0.816684 9.81277C0.832911 9.90684 0.876332 9.99411 0.941613 10.0639L5.17511 14.5891C5.26683 14.6872 5.37775 14.7654 5.501 14.8189C5.62426 14.8725 5.75719 14.9003 5.89162 14.9005H25.9444C26.0401 14.9005 26.1337 14.8726 26.2137 14.8202C26.2937 14.7679 26.3566 14.6934 26.3948 14.6058C26.4329 14.5183 26.4446 14.4216 26.4284 14.3275C26.4121 14.2335 26.3687 14.1462 26.3034 14.0764L22.0732 9.55117ZM1.30068 6.30067H21.3545C21.4893 6.30071 21.6227 6.27313 21.7463 6.21954C21.87 6.16599 21.9812 6.08762 22.0732 5.98934L26.3034 1.46407C26.3687 1.39429 26.4121 1.30701 26.4284 1.21295C26.4446 1.11889 26.4329 1.02215 26.3948 0.93462C26.3566 0.847087 26.2937 0.772577 26.2137 0.720238C26.1337 0.667902 26.0401 0.640019 25.9444 0.640015H5.89162C5.75719 0.640243 5.62426 0.667992 5.501 0.721544C5.37775 0.775095 5.26683 0.853312 5.17511 0.95135L0.942704 5.4766C0.877487 5.54632 0.834085 5.63351 0.817821 5.72746C0.801557 5.82141 0.813138 5.91804 0.851144 6.00554C0.88915 6.09305 0.951929 6.16756 1.03178 6.21997C1.11163 6.27242 1.20509 6.30043 1.30068 6.30067Z" fill="url(#paint0_linear_2136_5049)"/>
</g>
</g>
<defs>
<linearGradient id="paint0_linear_2136_5049" x1="2.9727" y1="24.0451" x2="23.9421" y2="0.345758" gradientUnits="userSpaceOnUse">
<stop offset="0.08" stop-color="#9945FF"/>
<stop offset="0.3" stop-color="#8752F3"/>
<stop offset="0.5" stop-color="#5497D5"/>
<stop offset="0.6" stop-color="#43B4CA"/>
<stop offset="0.72" stop-color="#28E0B9"/>
<stop offset="0.97" stop-color="#19FB9B"/>
</linearGradient>
<clipPath id="clip0_2136_5049">
<rect width="147" height="24" fill="white" transform="translate(0.80957)"/>
</clipPath>
</defs>
</svg>
